<svg width="365" height="265" viewBox="0 0 365 265" fill="none" xmlns="http://www.w3.org/2000/svg">
<path d="M2.51678 0H365V260.598H2.51678V0Z" fill="#FEB618"/>
<path opacity="0.5" d="M228.51 238.904C234.926 245.497 246.624 255.344 251.671 259.443L96.84 262.623C40.4417 244.308 23.9704 217.284 24.6877 199.427C25.4049 181.57 41.0483 158.946 72.7337 169.128C104.419 179.31 122.392 198.19 134.51 211.538C146.627 224.887 157.608 235.046 169.182 242.224C178.441 247.968 186.283 251.349 189.046 252.323C188.504 251.799 186.169 250.454 179.051 244.617C171.06 238.065 163.056 224.302 166.33 216.942C169.604 209.582 180.254 200.092 193.63 205.009C207.006 209.926 220.493 230.663 228.51 238.904Z" fill="#FF9000" fill-opacity="0.19"/>
<path opacity="0.5" fill-rule="evenodd" clip-rule="evenodd" d="M36.8773 173.532C44.937 166.835 56.8978 163.712 72.8416 168.836C104.616 179.047 122.637 197.981 134.762 211.339C146.872 224.679 157.829 234.811 169.365 241.967C176.765 246.557 183.253 249.633 186.951 251.173C186.755 251.031 186.541 250.874 186.309 250.704C184.763 249.569 182.396 247.771 178.833 244.85C174.799 241.541 170.774 236.426 168.166 231.213C166.862 228.605 165.907 225.962 165.486 223.498C165.065 221.038 165.174 218.734 166.024 216.824C167.686 213.087 171.212 208.821 176.02 206.107C180.839 203.387 186.954 202.223 193.752 204.721C200.528 207.213 207.292 213.687 213.335 220.514C216.119 223.657 218.761 226.889 221.187 229.858C221.4 230.119 221.612 230.379 221.823 230.636C224.427 233.818 226.763 236.649 228.757 238.697C235.157 245.276 246.842 255.111 251.889 259.21L252.535 259.734L96.7875 262.933L96.7309 262.913C40.276 244.581 23.6313 217.474 24.3566 199.416C24.7181 190.419 28.837 180.213 36.8773 173.532ZM37.3178 173.993C29.4356 180.543 25.3743 190.578 25.0185 199.439C24.3095 217.089 40.5963 244.017 96.8925 262.313L250.812 259.152C245.469 254.785 234.437 245.453 228.265 239.111C226.249 237.041 223.894 234.187 221.296 231.011C221.086 230.754 220.875 230.495 220.661 230.233C218.233 227.262 215.6 224.04 212.825 220.906C206.778 214.075 200.11 207.722 193.509 205.296C186.93 202.878 181.031 204 176.363 206.635C171.684 209.277 168.248 213.436 166.636 217.06C165.849 218.829 165.731 221.007 166.14 223.401C166.548 225.793 167.48 228.38 168.766 230.951C171.34 236.098 175.313 241.141 179.27 244.386C182.824 247.299 185.183 249.091 186.719 250.22C187.337 250.673 187.822 251.019 188.2 251.289C188.293 251.355 188.378 251.417 188.458 251.473C188.857 251.759 189.128 251.957 189.285 252.109L188.929 252.612C186.14 251.63 178.276 248.235 168.999 242.481C157.387 235.279 146.382 225.095 134.257 211.738C122.147 198.398 104.222 179.573 72.6258 169.42C56.884 164.361 45.1803 167.46 37.3178 173.993Z" fill="#FF8A37" fill-opacity="0.53"/>
<path opacity="0.5" d="M30.9842 240.481C47.3099 251.046 53.0708 258.3 56.5848 263.118C45.6922 263.342 29.2483 265.993 17.4482 260.077C-8.62996 247.002 14.6586 229.917 30.9842 240.481Z" fill="#FF9000" fill-opacity="0.19"/>
<path opacity="0.5" d="M265.933 236.664C278.379 244.401 288.271 254.314 292.275 258.48L264.835 259.043C249.143 251.678 244.496 238.724 246.334 233.831C248.173 228.938 253.489 228.929 265.933 236.664Z" fill="#FF9000" fill-opacity="0.19"/>
<path opacity="0.5" fill-rule="evenodd" clip-rule="evenodd" d="M252.197 230.205C255.394 230.57 259.892 232.54 266.117 236.409C278.599 244.168 288.513 254.103 292.522 258.275L293.002 258.773L264.76 259.353L264.687 259.32C256.781 255.609 251.647 250.486 248.723 245.662C247.261 243.251 246.347 240.911 245.919 238.857C245.488 236.81 245.537 235.023 246.021 233.728C246.496 232.463 247.211 231.479 248.243 230.863C249.277 230.245 250.585 230.024 252.197 230.205ZM248.599 231.382C247.731 231.902 247.091 232.753 246.646 233.934C246.214 235.087 246.152 236.753 246.567 238.739C246.983 240.721 247.869 242.998 249.298 245.358C252.152 250.062 257.166 255.082 264.911 258.733L291.546 258.186C287.273 253.774 277.686 244.343 265.749 236.923C259.531 233.056 255.147 231.164 252.117 230.818C250.611 230.647 249.47 230.862 248.599 231.382Z" fill="#FF8A37" fill-opacity="0.53"/>
<path d="M137.538 223.982L148.143 227.921L142.816 239.878L132.211 235.938L137.538 223.982Z" fill="url(#paint0_linear)"/>
<path d="M155.059 247.61C152.173 244.963 144.732 237.667 144.071 237.016C138.933 238.22 134.896 234.794 133.52 232.931C130.341 235.48 128.855 239.1 128.723 240.036L154.081 249.853C155.732 250.542 156.462 248.897 155.059 247.61Z" fill="#161616"/>
<path d="M144.071 237.016C138.932 238.22 134.896 234.794 133.52 232.931C133.082 233.281 132.68 233.644 132.31 234.009C134.088 236.276 139.112 240.232 144.984 237.911C144.511 237.449 144.187 237.129 144.071 237.016Z" fill="#FF562B"/>
<path d="M147.974 231.687C146.421 236.62 133.756 232.187 133.849 230.316C134.513 216.928 134.98 198.488 135.305 193.904C135.63 189.32 110.065 153.905 98.9006 132.217C101.126 132.172 111.791 122.915 123.375 122.677C146.223 138.034 154.406 161.413 154.186 186.851C152.435 201.903 149.527 226.754 147.974 231.687Z" fill="#1B1B1B"/>
<path d="M147.974 231.687C146.421 236.62 133.756 232.187 133.849 230.316C134.513 216.928 134.98 198.488 135.305 193.904C135.63 189.32 110.065 153.905 98.9006 132.217C101.126 132.172 111.791 122.915 123.375 122.677C146.223 138.034 154.406 161.413 154.186 186.851C152.435 201.903 149.527 226.754 147.974 231.687Z" fill="url(#paint1_linear)"/>
<path d="M147.974 231.687C146.421 236.62 133.756 232.187 133.849 230.316C134.513 216.928 134.98 198.488 135.305 193.904C135.63 189.32 110.065 153.905 98.9006 132.217C101.126 132.172 111.791 122.915 123.375 122.677C146.223 138.034 154.406 161.413 154.186 186.851C152.435 201.903 149.527 226.754 147.974 231.687Z" fill="url(#paint2_linear)"/>
<path d="M101.829 217.443C99.874 217.483 98.3216 219.035 98.3656 220.895C98.4095 222.756 100.034 224.242 101.989 224.202C103.944 224.162 105.497 222.61 105.453 220.75C105.409 218.889 103.784 217.403 101.829 217.443Z" fill="#19004B"/>
<path d="M101.44 223.377C101.42 223.378 101.399 223.378 101.379 223.379C101.317 223.361 101.277 223.362 101.215 223.344C101.051 223.309 100.966 223.14 101.003 222.988C101.04 222.835 101.221 222.736 101.385 222.789C101.426 222.808 101.467 222.807 101.508 222.825C101.672 222.86 101.778 223.009 101.74 223.162C101.702 223.277 101.582 223.374 101.44 223.377ZM102.661 223.314C102.539 223.317 102.415 223.243 102.371 223.111C102.326 222.96 102.404 222.788 102.566 222.746C102.606 222.727 102.647 222.726 102.687 222.706C102.849 222.646 103.013 222.718 103.078 222.869C103.143 223.02 103.065 223.192 102.904 223.252C102.843 223.273 102.803 223.292 102.742 223.313C102.702 223.313 102.681 223.314 102.661 223.314ZM100.223 222.757C100.142 222.758 100.059 222.722 99.9967 222.666C99.9552 222.629 99.9135 222.592 99.872 222.555C99.7675 222.443 99.7631 222.253 99.9027 222.136C100.023 222.039 100.227 222.054 100.331 222.165C100.353 222.203 100.394 222.221 100.435 222.258C100.56 222.37 100.565 222.56 100.445 222.676C100.386 222.734 100.305 222.755 100.223 222.757ZM103.785 222.589C103.724 222.59 103.642 222.572 103.579 222.517C103.454 222.405 103.43 222.235 103.549 222.099C103.568 222.061 103.609 222.041 103.628 222.003C103.727 221.868 103.91 221.845 104.055 221.937C104.199 222.029 104.224 222.218 104.125 222.335C104.085 222.373 104.046 222.431 104.026 222.47C103.947 222.547 103.866 222.587 103.785 222.589ZM99.5443 221.631C99.4018 221.634 99.2775 221.541 99.2335 221.409C99.2116 221.353 99.2103 221.296 99.209 221.239C99.1851 221.088 99.304 220.933 99.4662 220.911C99.6286 220.888 99.7944 220.999 99.8183 221.151C99.8192 221.188 99.8406 221.226 99.8419 221.283C99.8861 221.434 99.7677 221.588 99.6055 221.63C99.5852 221.63 99.5646 221.63 99.5443 221.631ZM104.327 221.4C104.307 221.4 104.307 221.4 104.286 221.4C104.123 221.385 103.997 221.236 104.014 221.083C104.013 221.045 104.033 221.007 104.031 220.95C104.048 220.798 104.188 220.662 104.351 220.678C104.514 220.693 104.64 220.824 104.643 220.976C104.645 221.032 104.626 221.09 104.627 221.147C104.609 221.28 104.49 221.396 104.327 221.4ZM99.6356 220.318C99.5948 220.319 99.5542 220.32 99.5332 220.302C99.369 220.248 99.2838 220.079 99.3411 219.926C99.36 219.868 99.3797 219.83 99.3986 219.773C99.4562 219.619 99.638 219.559 99.8024 219.612C99.9671 219.685 100.032 219.854 99.9538 219.989C99.9343 220.027 99.9149 220.066 99.8955 220.104C99.8786 220.256 99.7579 220.316 99.6356 220.318ZM104.113 220.113C103.991 220.115 103.888 220.06 103.824 219.947C103.803 219.91 103.782 219.872 103.76 219.835C103.676 219.704 103.732 219.512 103.873 219.434C104.014 219.355 104.199 219.408 104.283 219.539C104.305 219.596 104.346 219.633 104.368 219.689C104.433 219.84 104.376 220.012 104.235 220.072C104.194 220.092 104.154 220.112 104.113 220.113ZM100.446 219.276C100.345 219.278 100.262 219.242 100.199 219.167C100.094 219.036 100.111 218.865 100.251 218.767C100.291 218.728 100.351 218.708 100.391 218.67C100.532 218.572 100.716 218.606 100.821 218.756C100.906 218.887 100.869 219.078 100.729 219.156C100.689 219.176 100.648 219.196 100.629 219.235C100.568 219.255 100.507 219.275 100.446 219.276ZM103.194 219.144C103.133 219.145 103.071 219.127 103.03 219.109C102.989 219.091 102.948 219.073 102.906 219.055C102.762 218.982 102.697 218.812 102.775 218.658C102.853 218.524 103.035 218.463 103.179 218.536C103.221 218.554 103.283 218.591 103.324 218.628C103.469 218.72 103.514 218.89 103.415 219.025C103.396 219.082 103.296 219.142 103.194 219.144ZM101.719 218.813C101.556 218.817 101.431 218.705 101.407 218.554C101.383 218.402 101.522 218.247 101.685 218.244C101.746 218.243 101.808 218.242 101.868 218.24C102.031 218.237 102.177 218.367 102.181 218.519C102.184 218.671 102.065 218.806 101.882 218.81L101.862 218.81C101.821 218.792 101.78 218.793 101.719 218.813Z" fill="white"/>
<path d="M101.876 219.36C101.02 219.378 100.343 220.037 100.362 220.853C100.382 221.67 101.089 222.301 101.945 222.284C102.8 222.266 103.477 221.587 103.458 220.79C103.439 219.974 102.731 219.342 101.876 219.36Z" fill="#CCE3E3"/>
<path d="M101.874 219.36C101.018 219.378 100.341 220.037 100.361 220.854C100.38 221.67 101.087 222.301 101.943 222.284C102.798 222.266 103.475 221.587 103.456 220.79C103.437 219.974 102.729 219.342 101.874 219.36Z" fill="white"/>
<path d="M101.893 220.082C101.465 220.09 101.127 220.42 101.136 220.838C101.146 221.237 101.5 221.571 101.928 221.562C102.355 221.554 102.694 221.224 102.684 220.806C102.674 220.389 102.32 220.073 101.893 220.082Z" fill="#19004B"/>
<path fill-rule="evenodd" clip-rule="evenodd" d="M233.764 145.794C232.654 147.612 231.338 149.288 229.82 150.194C227.8 151.4 224.81 152.43 222.076 153.209C219.297 153.999 216.584 154.584 214.996 154.854L214.333 151.461C215.775 151.215 218.348 150.663 220.993 149.91C223.682 149.145 226.259 148.225 227.824 147.289C228.549 146.857 229.498 145.806 230.55 144.086C231.564 142.425 232.555 140.342 233.449 138.101C234.938 134.364 236.103 130.331 236.672 127.315C236.849 126.377 237.764 125.699 238.78 125.807C239.794 125.916 240.525 126.771 240.353 127.71C239.749 131.019 238.494 135.348 236.918 139.302C235.982 141.65 234.912 143.917 233.764 145.794Z" fill="#F0481D"/>
<path fill-rule="evenodd" clip-rule="evenodd" d="M233.381 145.59C234.512 143.739 235.572 141.494 236.504 139.159C238.071 135.225 239.318 130.921 239.919 127.641C240.044 126.949 239.507 126.3 238.73 126.216C237.962 126.134 237.246 126.649 237.106 127.386C236.534 130.429 235.36 134.486 233.863 138.244L233.449 138.101C234.938 134.364 236.103 130.331 236.672 127.315C236.849 126.377 237.767 125.699 238.78 125.807C239.794 125.916 240.525 126.771 240.353 127.71C239.749 131.019 238.494 135.348 236.918 139.302C235.982 141.65 234.912 143.917 233.764 145.794C232.654 147.612 231.338 149.288 229.82 150.194C227.8 151.4 224.813 152.43 222.076 153.209C219.536 153.931 217.052 154.482 215.431 154.777C215.28 154.805 215.137 154.83 215.002 154.853C215 154.853 214.998 154.854 214.996 154.854L214.333 151.461C214.339 151.459 214.348 151.458 214.357 151.456C215.804 151.209 218.363 150.659 220.995 149.91C223.682 149.145 226.259 148.225 227.824 147.289C228.549 146.857 229.498 145.806 230.55 144.086C231.564 142.425 232.557 140.342 233.449 138.101L233.863 138.244C232.965 140.498 231.964 142.603 230.935 144.29L230.935 144.29C229.876 146.022 228.883 147.147 228.062 147.636C226.442 148.604 223.817 149.537 221.124 150.303L233.381 145.59ZM214.844 151.789L215.351 154.372C216.956 154.079 219.425 153.533 221.947 152.815C224.678 152.038 227.617 151.021 229.58 149.847C231.004 148.998 232.278 147.396 233.381 145.59" fill="#FF724F"/>
<path d="M243.978 154.476C242.027 157.622 239.969 160.119 240.496 160.58C241.015 161.032 242.15 161.235 242.2 160.09C242.248 158.944 243.658 157.131 245.035 154.85C246.408 152.569 249.049 149.588 247.526 148.71C246.304 148.007 242.998 145.732 241.496 144.681C241.115 145.451 240.364 147.025 240.398 147.165C245.973 149.948 245.926 151.33 243.978 154.476Z" fill="#FF724F"/>
<path fill-rule="evenodd" clip-rule="evenodd" d="M243.513 149.119C242.771 148.555 241.737 147.95 240.347 147.255L240.451 147.074C241.847 147.771 242.895 148.383 243.653 148.959C244.411 149.535 244.881 150.081 245.113 150.648C245.574 151.786 245.044 152.96 244.072 154.527L243.978 154.476L244.072 154.527C243.468 155.503 242.849 156.422 242.303 157.233C241.97 157.728 241.663 158.183 241.403 158.587C241.056 159.125 240.793 159.572 240.646 159.912C240.573 160.082 240.532 160.218 240.526 160.321C240.517 160.425 240.54 160.477 240.572 160.504C240.813 160.715 241.196 160.863 241.511 160.831C241.666 160.815 241.801 160.758 241.9 160.646C242.003 160.534 242.079 160.356 242.09 160.085C242.103 159.782 242.205 159.441 242.368 159.069C242.532 158.697 242.758 158.287 243.024 157.845C243.275 157.427 243.564 156.977 243.871 156.499C243.888 156.472 243.905 156.444 243.924 156.417C244.25 155.908 244.595 155.368 244.939 154.8C245.247 154.285 245.62 153.736 245.996 153.186C246.039 153.123 246.081 153.06 246.124 152.997C246.542 152.382 246.95 151.772 247.27 151.206C247.587 150.638 247.809 150.126 247.863 149.707C247.889 149.498 247.872 149.319 247.809 149.169C247.748 149.021 247.639 148.896 247.469 148.797L247.584 148.622C247.794 148.743 247.935 148.903 248.015 149.095C248.094 149.285 248.11 149.5 248.083 149.731C248.025 150.189 247.786 150.729 247.464 151.302C247.142 151.876 246.728 152.493 246.31 153.107C246.267 153.17 246.225 153.233 246.182 153.296C245.809 153.847 245.437 154.391 245.131 154.9C244.785 155.472 244.44 156.014 244.112 156.523C244.095 156.55 244.078 156.577 244.061 156.604C243.754 157.082 243.467 157.53 243.216 157.946C242.951 158.385 242.73 158.786 242.573 159.147C242.414 159.509 242.322 159.824 242.311 160.094C242.296 160.395 242.211 160.621 242.071 160.779C241.927 160.937 241.736 161.015 241.536 161.036C241.142 161.075 240.698 160.896 240.421 160.655C240.319 160.566 240.294 160.44 240.304 160.306C240.314 160.172 240.366 160.013 240.441 159.835C240.594 159.479 240.868 159.019 241.213 158.481C241.479 158.069 241.786 157.611 242.121 157.115C242.665 156.308 243.277 155.399 243.881 154.424C244.86 152.846 245.326 151.756 244.904 150.721C244.693 150.201 244.255 149.683 243.513 149.119Z" fill="#00FFFF"/>
<path fill-rule="evenodd" clip-rule="evenodd" d="M247.188 132.979C248.078 133.445 248.394 134.496 247.892 135.327L236.024 155.033C235.417 156.041 234.385 156.768 233.175 157.034L223.563 159.149C221.678 159.564 218.923 160.049 216.283 158.395C213.744 156.805 211.779 153.53 210.327 147.796C210.091 146.869 210.707 145.94 211.702 145.721C212.697 145.502 213.693 146.076 213.927 147.003C215.327 152.532 217.017 154.699 218.348 155.532C219.574 156.301 220.901 156.191 222.715 155.792L232.325 153.677C232.525 153.633 232.696 153.513 232.798 153.344L244.666 133.638C245.168 132.808 246.296 132.512 247.188 132.979Z" fill="#F0481D"/>
<path fill-rule="evenodd" clip-rule="evenodd" d="M244.859 133.739C245.084 133.366 245.453 133.116 245.864 133.014L244.859 133.739ZM244.859 133.739L232.991 153.444L232.991 153.445C232.859 153.663 232.637 153.819 232.376 153.877L222.766 155.991C220.947 156.392 219.535 156.525 218.224 155.703L218.47 155.361C219.613 156.077 220.854 155.989 222.664 155.591L232.274 153.476C232.414 153.446 232.534 153.363 232.606 153.242C232.606 153.242 232.606 153.242 232.608 153.242L244.474 133.537L244.474 133.537C244.761 133.063 245.228 132.745 245.751 132.616L245.864 133.014L244.859 133.739ZM247.7 135.226C247.896 134.902 247.951 134.541 247.881 134.203L248.317 134.128C248.402 134.557 248.333 135.017 248.085 135.427L247.7 135.226ZM248.085 135.428L236.217 155.133C235.579 156.192 234.496 156.954 233.226 157.234L223.614 159.348C221.723 159.765 218.884 160.273 216.159 158.566C213.548 156.93 211.566 153.589 210.112 147.842L210.542 147.748C211.989 153.47 213.939 156.679 216.405 158.224C218.962 159.826 221.631 159.362 223.514 158.948L233.124 156.833C234.272 156.58 235.254 155.89 235.832 154.931L247.7 135.226L247.7 135.226" fill="#FF562B"/>
<path d="M241.656 259.649C267.671 259.115 288.296 239.022 287.723 214.772C287.15 190.521 265.596 171.295 239.581 171.829C213.566 172.364 192.942 192.456 193.515 216.706C194.088 240.957 215.642 260.183 241.656 259.649Z" fill="url(#paint3_linear)"/>
<path fill-rule="evenodd" clip-rule="evenodd" d="M239.029 171.841C239.023 171.557 239.264 171.321 239.569 171.315C265.888 170.774 287.695 190.226 288.274 214.76C288.854 239.295 267.988 259.623 241.669 260.163C241.364 260.169 241.111 259.944 241.105 259.66C241.098 259.376 241.34 259.141 241.644 259.135C267.355 258.606 287.737 238.75 287.171 214.783C286.605 190.816 265.303 171.816 239.593 172.344C239.289 172.35 239.036 172.125 239.029 171.841Z" fill="#050505"/>
<path d="M241.568 255.995C265.42 255.505 284.329 237.085 283.803 214.852C283.278 192.619 263.517 174.992 239.665 175.482C215.817 175.972 196.907 194.392 197.432 216.626C197.958 238.859 217.72 256.485 241.568 255.995Z" fill="#242424"/>
<path d="M241.537 254.668C264.601 254.195 282.886 236.382 282.378 214.881C281.87 193.381 262.761 176.336 239.696 176.81C216.634 177.284 198.349 195.097 198.857 216.596C199.365 238.097 218.474 255.142 241.537 254.668Z" fill="#202020"/>
<path d="M241.501 253.162C263.671 252.707 281.251 235.584 280.762 214.915C280.274 194.247 261.903 177.861 239.732 178.316C217.562 178.772 199.982 195.896 200.471 216.564C200.959 237.233 219.33 253.618 241.501 253.162Z" fill="#FFFBF6"/>
<path d="M242.3 253.139L241.449 217.123L232.221 252.314L231.743 252.206L240.971 217.015L222.287 248.78L221.856 248.56L240.542 216.794L213.674 242.969L213.32 242.651L240.186 216.479L206.967 235.277L206.713 234.887L239.931 216.087L202.625 226.232L202.488 225.792L239.795 215.647L200.943 216.445L200.932 215.988L239.784 215.19L202.032 206.587L202.15 206.142L239.9 214.745L205.825 197.327L206.061 196.926L240.135 214.344L212.128 189.36C212.243 189.252 212.359 189.144 212.476 189.037L240.476 214.013L220.497 183.337C220.639 183.26 220.781 183.185 220.924 183.109L240.895 213.776L230.195 179.581C230.354 179.541 230.512 179.503 230.671 179.465L241.366 213.648L240.531 178.307C240.696 178.307 240.86 178.307 241.024 178.309L241.859 213.637L250.804 179.522C250.963 179.561 251.121 179.6 251.279 179.641L242.334 213.746L260.344 183.13C260.487 183.205 260.629 183.281 260.771 183.358L242.765 213.966L268.549 188.848C268.667 188.954 268.784 189.061 268.9 189.168L243.119 214.283L274.928 196.282C275.013 196.412 275.097 196.542 275.181 196.674L243.376 214.674L279.083 204.964C279.13 205.11 279.176 205.257 279.221 205.403L243.512 215.113L280.744 214.348C280.75 214.501 280.755 214.653 280.759 214.806L243.523 215.571L279.829 223.845C279.793 223.994 279.757 224.143 279.72 224.291L243.405 216.015L276.34 232.85C276.265 232.986 276.189 233.12 276.113 233.255L243.172 216.417L270.473 240.77C270.364 240.884 270.253 240.997 270.142 241.109L242.831 216.747L262.585 247.079C262.448 247.163 262.31 247.245 262.172 247.328L242.41 216.985L253.152 251.311C252.997 251.359 252.841 251.405 252.685 251.451L241.941 217.114L242.792 253.117C242.628 253.125 242.464 253.132 242.3 253.139Z" fill="#EEE5D2"/>
<path d="M240.746 221.114C243.93 221.049 246.455 218.589 246.385 215.62C246.315 212.652 243.676 210.298 240.492 210.363C237.307 210.429 234.782 212.888 234.852 215.857C234.922 218.826 237.561 221.18 240.746 221.114Z" fill="#FF562B"/>
<path d="M240.716 219.966C243.221 219.915 245.205 217.981 245.149 215.646C245.094 213.312 243.021 211.461 240.517 211.513C238.014 211.564 236.026 213.498 236.081 215.832C236.136 218.167 238.214 220.017 240.716 219.966Z" fill="#12C65A"/>
<path d="M240.676 218.171C242.115 218.142 243.259 217.029 243.227 215.686C243.195 214.342 242 213.278 240.561 213.307C239.12 213.337 237.976 214.45 238.008 215.793C238.04 217.136 239.235 218.201 240.676 218.171Z" fill="#FFFBF6"/>
<path d="M80.0331 259.294C106.048 258.76 126.672 238.668 126.099 214.417C125.526 190.166 103.972 170.94 77.9576 171.474C51.9429 172.009 31.3186 192.101 31.8917 216.351C32.4648 240.602 54.0184 259.828 80.0331 259.294Z" fill="url(#paint4_linear)"/>
<path fill-rule="evenodd" clip-rule="evenodd" d="M31.34 216.363C30.7602 191.828 51.626 171.501 77.9454 170.96C104.265 170.42 126.071 189.871 126.651 214.405C126.657 214.689 126.416 214.925 126.111 214.931C125.807 214.937 125.554 214.712 125.547 214.428C124.981 190.461 103.68 171.461 77.9697 171.989C52.2598 172.517 31.877 192.373 32.4434 216.34C33.0099 240.307 54.311 259.308 80.0209 258.78C80.3257 258.774 80.5781 258.999 80.5848 259.283C80.5915 259.567 80.35 259.802 80.0452 259.808C53.7258 260.349 31.9199 240.898 31.34 216.363Z" fill="#252525"/>
<path d="M79.9472 255.64C103.798 255.151 122.707 236.73 122.181 214.497C121.656 192.264 101.895 174.637 78.0443 175.127C54.1937 175.617 35.285 194.038 35.8105 216.271C36.3359 238.504 56.0965 256.13 79.9472 255.64Z" fill="#252525"/>
<path d="M79.9154 254.314C102.979 253.84 121.264 236.027 120.756 214.526C120.248 193.027 101.139 175.982 78.0753 176.455C55.0114 176.929 36.7267 194.742 37.2348 216.242C37.743 237.742 56.8515 254.787 79.9154 254.314Z" fill="#1B1B1B"/>
<path d="M79.8799 252.806C102.052 252.35 119.629 235.227 119.141 214.559C118.653 193.891 100.283 177.505 78.1111 177.96C55.9395 178.416 38.3618 195.54 38.8503 216.208C39.3387 236.876 57.7083 253.261 79.8799 252.806Z" fill="#FFFBF6"/>
<path d="M78.7563 217.089L79.5934 252.509L80.0736 252.499L79.2365 217.079L89.879 251.09L90.34 250.965L79.6975 216.954L99.4203 247.238L99.8308 247.005L80.1077 216.721L107.567 241.215L107.899 240.891L80.4401 216.398L113.764 233.431L113.995 233.04L80.6704 216.005L117.589 224.419L117.703 223.984L80.7849 215.57L118.781 214.79L118.77 214.343L80.7747 215.123L117.259 205.202L117.125 204.772L80.6398 214.693L113.127 196.308L112.878 195.925L80.3904 214.311L106.666 188.713L106.319 188.404L80.0439 214.001L98.3168 182.937L97.8958 182.722L79.6224 213.786L88.648 179.371L88.1816 179.265L79.1562 213.679L78.3191 178.26L77.8389 178.27L78.676 213.69L68.0332 179.679L67.5723 179.804L78.2148 213.815L58.492 183.531L58.0815 183.763L77.8041 214.047L50.3454 189.554L50.0135 189.877L77.4728 214.371L44.1483 197.337L43.9176 197.729L77.2412 214.763L40.3236 206.349L40.2096 206.784L77.1276 215.198L39.1317 215.978L39.1423 216.426L77.1386 215.645L40.6537 225.566L40.7882 225.996L77.2727 216.075L44.7859 234.461L45.035 234.843L77.5215 216.458L51.2466 242.055L51.5935 242.365L77.8691 216.767L59.5959 247.832L60.017 248.047L78.2897 216.983L69.2643 251.398L69.7307 251.503L78.7563 217.089Z" fill="#EEE5D2"/>
<path fill-rule="evenodd" clip-rule="evenodd" d="M79.6781 212.171C77.6694 212.28 76.0818 212.77 74.9374 214.08C74.5057 214.574 74.2694 214.933 74.161 215.234C74.0582 215.518 74.0653 215.764 74.1629 216.051C74.2663 216.355 74.4678 216.696 74.7636 217.169C74.8003 217.228 74.8384 217.289 74.8778 217.351C75.1383 217.767 75.4507 218.265 75.7901 218.88C77.8914 220.233 78.6492 221.504 78.6751 222.622C78.7008 223.738 77.9922 224.586 77.4754 225.073C75.2155 227.203 74.7338 229.072 75.2489 230.444C75.7679 231.826 77.3535 232.853 79.5774 233.184C80.4764 233.318 84.1522 231.973 89.6144 232.363C93.3179 232.626 97.8136 232.938 102.757 233.281C105.09 233.441 107.522 233.609 110.018 233.784C125.586 234.866 143.623 236.152 155.315 237.24L155.25 237.85C143.568 236.763 125.539 235.476 109.969 234.394C107.474 234.221 105.042 234.053 102.709 233.891C97.7649 233.548 93.2681 233.237 89.5642 232.973C84.1232 232.585 80.4075 233.927 79.4741 233.79C77.1174 233.439 75.2579 232.322 74.629 230.646C73.9956 228.959 74.6626 226.853 77.0082 224.642C77.4877 224.19 78.0385 223.497 78.0186 222.635C77.9988 221.788 77.4219 220.659 75.3506 219.341L75.2811 219.297L75.2432 219.227C74.8982 218.597 74.5816 218.093 74.3113 217.662C74.2718 217.599 74.2333 217.537 74.1959 217.477C73.907 217.015 73.6659 216.616 73.5368 216.236C73.4016 215.84 73.3862 215.46 73.5386 215.038C73.6851 214.632 73.9812 214.204 74.4282 213.693C75.7359 212.197 77.5381 211.674 79.6396 211.56C81.1878 211.475 82.9426 211.611 84.8252 211.757C85.476 211.808 86.1418 211.859 86.8196 211.903C111.939 213.539 130.42 214.367 151.302 215.303C153.207 215.389 155.133 215.475 157.086 215.563L157.054 216.175C155.101 216.087 153.175 216.001 151.27 215.915C130.388 214.979 111.901 214.15 86.774 212.514C86.0699 212.468 85.3877 212.416 84.7281 212.364C82.8622 212.22 81.1758 212.089 79.6781 212.171Z" fill="#12C65A"/>
<path d="M78.1196 232.126C79.744 232.489 81.3759 231.554 81.7645 230.041C82.1533 228.527 81.1518 227.006 79.5277 226.643C77.9036 226.281 76.2716 227.215 75.8828 228.729C75.494 230.243 76.4955 231.764 78.1196 232.126Z" fill="#FF562B"/>
<path fill-rule="evenodd" clip-rule="evenodd" d="M81.3355 229.945C81.6675 228.652 80.8123 227.353 79.4252 227.043C78.0381 226.734 76.6446 227.531 76.3124 228.825C75.9804 230.117 76.8355 231.417 78.2228 231.726C79.6099 232.035 81.0035 231.239 81.3355 229.945ZM75.8831 228.729L75.8859 228.729L75.8831 228.729ZM81.7648 230.041C81.3762 231.554 79.7443 232.489 78.1199 232.126C76.4957 231.764 75.4942 230.243 75.8831 228.729C76.2719 227.215 77.9038 226.281 79.5279 226.643C81.1521 227.006 82.1536 228.527 81.7648 230.041Z" fill="#FFC6B8"/>
<path fill-rule="evenodd" clip-rule="evenodd" d="M79.5161 230.617C79.7268 230.461 79.8852 230.241 79.9527 229.978C80.1129 229.355 79.7004 228.728 79.0316 228.579C78.7275 228.511 78.4227 228.553 78.1658 228.679C77.8155 228.45 77.4177 228.275 76.9998 228.148C76.1625 227.893 75.2177 227.818 74.3373 227.89L74.0092 227.917L74.0124 228.223C74.035 230.335 74.6619 231.637 75.6236 232.444C76.5717 233.24 77.7872 233.501 78.8564 233.654L79.1601 233.697L79.2503 233.424C79.6372 232.247 79.654 231.304 79.5161 230.617ZM77.6475 229.153C77.5966 229.241 77.5567 229.336 77.5308 229.438C77.3707 230.061 77.7829 230.687 78.4517 230.837C78.582 230.865 78.7127 230.874 78.8395 230.865C78.9198 231.368 78.9093 232.062 78.6554 232.95C77.7149 232.797 76.8054 232.544 76.0996 231.951C75.3723 231.342 74.8091 230.325 74.732 228.531C75.4309 228.508 76.1475 228.586 76.7789 228.778C77.0987 228.876 77.3914 229.001 77.6475 229.153Z" fill="#12C65A"/>
<path d="M79.1233 220.759C82.3078 220.694 84.8328 218.234 84.7626 215.265C84.6925 212.297 82.0537 209.943 78.8692 210.008C75.6844 210.074 73.1594 212.534 73.2296 215.502C73.2997 218.471 75.9385 220.825 79.1233 220.759Z" fill="#FF562B"/>
<path d="M79.0956 219.61C81.5998 219.559 83.5852 217.625 83.5301 215.29C83.4749 212.956 81.4 211.105 78.8959 211.157C76.3917 211.208 74.4063 213.142 74.4615 215.477C74.5166 217.811 76.5915 219.662 79.0956 219.61Z" fill="#12C65A"/>
<path d="M79.0539 217.815C80.4948 217.786 81.6372 216.673 81.6054 215.33C81.5737 213.987 80.3798 212.922 78.9389 212.951C77.4981 212.981 76.3557 214.094 76.3874 215.437C76.4192 216.78 77.613 217.845 79.0539 217.815Z" fill="white"/>
<path fill-rule="evenodd" clip-rule="evenodd" d="M200.142 164.267C198.648 164.316 197.101 164.367 195.554 164.364C191.076 164.354 177.797 164.933 164.489 165.537C162.409 165.632 160.328 165.727 158.281 165.821C147.237 166.327 137.155 166.788 133.319 166.867C128.899 166.958 124.058 169.622 119.164 173.544C114.282 177.455 109.408 182.566 104.925 187.455C100.396 192.395 94.9084 195.208 89.8202 197.499C88.999 197.868 88.1898 198.224 87.3974 198.572C85.7274 199.305 84.131 200.006 82.6461 200.743C80.4609 201.827 78.5509 202.972 77.0586 204.375C74.6917 206.6 74.0385 209.136 74.1799 211.412C74.3216 213.698 75.2671 215.719 76.0892 216.872C76.1895 217.013 76.1487 217.202 75.9977 217.296C75.8467 217.39 75.6429 217.352 75.5424 217.211C74.6659 215.982 73.6738 213.858 73.5239 211.447C73.3737 209.026 74.0744 206.311 76.592 203.944C78.1524 202.478 80.1291 201.298 82.3375 200.202C83.8366 199.458 85.4576 198.747 87.1359 198.01C87.9252 197.663 88.7268 197.311 89.5347 196.947C94.6031 194.666 99.9882 191.897 104.426 187.058C108.909 182.168 113.811 177.025 118.735 173.08C123.647 169.144 128.641 166.35 133.305 166.255C137.131 166.176 147.2 165.715 158.246 165.21C160.294 165.116 162.375 165.021 164.457 164.926C177.754 164.321 191.055 163.741 195.556 163.751C197.09 163.755 198.616 163.705 200.104 163.655C200.785 163.633 201.46 163.611 202.125 163.594C204.223 163.542 206.208 163.545 207.936 163.782C209.662 164.019 211.165 164.495 212.271 165.414C213.386 166.341 214.06 167.686 214.189 169.582C214.2 169.751 214.064 169.896 213.883 169.907C213.7 169.918 213.547 169.79 213.534 169.621C213.413 167.848 212.796 166.668 211.834 165.871C210.863 165.065 209.506 164.617 207.84 164.388C206.174 164.159 204.238 164.154 202.141 164.206C201.49 164.223 200.822 164.245 200.142 164.267Z" fill="#781800"/>
<path d="M103.519 144.941C99.6717 144.728 98.3741 147.057 98.2064 148.248C104.099 148.767 108.77 151.503 112.135 152.895C115.5 154.288 117.244 153.43 117.919 152.959C118.594 152.489 120.527 151.353 124.234 150.637C127.942 149.921 135.889 150.306 138.647 150.889C141.405 151.472 144.557 152.138 142.74 149.891C140.923 147.645 133.461 147.067 131.406 147.201C129.351 147.334 122.278 146.657 117.078 146.399C111.877 146.14 108.327 145.208 103.519 144.941Z" fill="#FFA58E"/>
<path fill-rule="evenodd" clip-rule="evenodd" d="M128.689 153.061C126.862 153.702 124.916 154.003 123.433 154.034C122.061 154.062 120.903 154.24 119.754 154.444C119.559 154.479 119.364 154.515 119.167 154.551C118.213 154.725 117.232 154.904 116.15 155.004C114.962 155.114 114.073 154.754 113.459 154.234C112.865 153.729 112.549 153.092 112.435 152.636L113.581 152.388C113.648 152.659 113.857 153.089 114.251 153.423C114.626 153.741 115.189 153.991 116.034 153.913C117.056 153.819 117.974 153.651 118.926 153.478C119.126 153.441 119.329 153.404 119.534 153.368C120.703 153.159 121.937 152.968 123.407 152.938C124.764 152.91 126.578 152.631 128.274 152.035C129.98 151.436 131.493 150.544 132.344 149.337L133.327 149.939C132.281 151.42 130.506 152.423 128.689 153.061Z" fill="#F93200"/>
<path d="M101.354 148.742C105.784 149.734 109.393 151.761 112.135 152.896C113.409 153.423 114.45 153.627 115.289 153.653C115.289 153.653 115.773 149.258 113.411 148.85C111.615 148.539 110.451 147.997 108.969 147.479C107.487 146.961 104.631 146.38 103.176 147.05C102.013 147.585 101.477 148.401 101.354 148.742Z" fill="#FF8C6F"/>
<path fill-rule="evenodd" clip-rule="evenodd" d="M98.2064 148.248C98.3538 148.261 98.5001 148.275 98.6457 148.291C103.103 148.77 106.845 150.493 109.834 151.869C110.659 152.249 111.426 152.602 112.135 152.895C115.5 154.288 117.244 153.43 117.919 152.959C118.594 152.489 120.527 151.353 124.235 150.637C127.942 149.921 135.889 150.306 138.648 150.889C141.406 151.472 144.558 152.138 142.74 149.891C140.923 147.645 133.461 147.067 131.406 147.201C130.144 147.283 126.989 147.059 123.537 146.814C121.369 146.661 119.084 146.499 117.078 146.399C114.384 146.265 112.133 145.95 109.921 145.641C107.862 145.353 105.836 145.07 103.519 144.941C100.073 144.75 98.6724 146.599 98.2975 147.843C98.2537 147.987 98.224 148.124 98.2064 148.248ZM98.7435 147.887C103.268 148.384 107.085 150.142 110.066 151.516C110.879 151.89 111.629 152.235 112.314 152.519C113.94 153.192 115.138 153.307 115.986 153.217C116.833 153.128 117.365 152.832 117.655 152.63C118.382 152.123 120.375 150.962 124.145 150.234C126.053 149.866 129.01 149.785 131.811 149.865C134.613 149.945 137.324 150.187 138.745 150.488C139.437 150.634 140.141 150.783 140.784 150.89C141.433 150.998 141.988 151.059 142.388 151.04C142.589 151.031 142.717 151.003 142.79 150.973C142.816 150.962 142.829 150.954 142.835 150.949C142.837 150.934 142.84 150.876 142.788 150.753C142.726 150.606 142.602 150.405 142.388 150.139C142.007 149.668 141.291 149.246 140.328 148.887C139.377 148.532 138.24 148.259 137.081 148.058C134.758 147.654 132.417 147.548 131.437 147.611C130.369 147.681 128.047 147.541 125.389 147.357C124.776 147.315 124.143 147.27 123.5 147.224C121.333 147.071 119.055 146.909 117.055 146.81C114.431 146.679 112.225 146.379 110.086 146.08C110.011 146.069 109.936 146.059 109.86 146.048C107.798 145.76 105.79 145.48 103.493 145.352C101.676 145.251 100.511 145.75 99.781 146.372C99.2191 146.851 98.8976 147.419 98.7435 147.887ZM142.84 150.944C142.84 150.944 142.839 150.945 142.837 150.947C142.838 150.945 142.839 150.944 142.84 150.944Z" fill="#FF562B"/>
<path d="M117.006 148.449C116.353 146.748 114.473 144.725 113.614 143.925C111.784 140.595 115.823 140.104 117.272 141.197C118.722 142.29 120.883 145.716 121.35 146.931C121.817 148.146 122.777 151.699 123.938 154.533C124.868 156.8 128.707 167.908 130.511 173.179L126.169 174.799C124.215 169.327 120.14 157.816 119.473 155.543C118.639 152.702 117.823 150.576 117.006 148.449Z" fill="#FF562B"/>
<path fill-rule="evenodd" clip-rule="evenodd" d="M115.74 145.602C116.408 146.432 117.073 147.402 117.422 148.31L117.423 148.313C118.239 150.44 119.061 152.579 119.899 155.435C120.545 157.638 124.433 168.63 126.44 174.255L129.965 172.939C128.113 167.531 124.429 156.882 123.526 154.68C122.939 153.247 122.404 151.638 121.96 150.242C121.832 149.839 121.712 149.456 121.601 149.101C121.322 148.211 121.097 147.494 120.934 147.07C120.718 146.506 120.082 145.376 119.307 144.239C118.528 143.094 117.658 142.017 116.995 141.517C116.716 141.306 116.28 141.152 115.785 141.103C115.292 141.053 114.79 141.112 114.394 141.278C114.005 141.44 113.738 141.695 113.636 142.047C113.533 142.402 113.576 142.931 113.977 143.682C114.421 144.101 115.093 144.798 115.74 145.602ZM113.614 143.925C114.473 144.725 116.353 146.748 117.006 148.449C117.823 150.576 118.639 152.702 119.473 155.543C120.124 157.763 124.028 168.797 126.03 174.408C126.077 174.541 126.124 174.672 126.169 174.799L130.511 173.179C128.707 167.908 124.868 156.8 123.938 154.533C123.194 152.716 122.532 150.604 122.03 149.002C121.749 148.105 121.517 147.367 121.35 146.931C120.883 145.716 118.722 142.29 117.272 141.197C115.823 140.104 111.784 140.595 113.614 143.925Z" fill="#FF8C6E"/>
<path d="M122.245 157.713C123.923 157.679 125.252 156.383 125.215 154.82C125.178 153.257 123.789 152.017 122.112 152.051C120.435 152.086 119.105 153.381 119.142 154.945C119.179 156.508 120.568 157.747 122.245 157.713Z" fill="#F93200"/>
<path fill-rule="evenodd" clip-rule="evenodd" d="M118.76 164.864C120.802 163.509 122.592 162.836 123.664 162.704L123.792 163.604C122.939 163.709 121.298 164.294 119.324 165.604C117.952 166.514 116.434 167.764 114.927 169.422C114.28 170.134 113.79 171.491 113.159 172.358L111.529 171.134C112.132 170.304 113.418 169.689 114.039 168.996C115.646 167.201 117.277 165.848 118.76 164.864Z" fill="#FF562B"/>
<path d="M108.277 181.339L103.127 177.909L101.595 179.908L106.744 183.339L108.277 181.339Z" fill="#FFCEC1"/>
<path d="M110.339 175.063L109.259 174.307L104.238 180.546L105.318 181.301L110.339 175.063Z" fill="#FF562B"/>
<path d="M111.177 173.693L110.834 173.43C110.273 173.001 109.445 173.077 108.985 173.6L107.025 175.828C106.565 176.352 106.647 177.123 107.208 177.552L107.552 177.815C108.113 178.244 108.941 178.167 109.401 177.644L111.36 175.416C111.82 174.893 111.739 174.121 111.177 173.693Z" fill="#FFCEC1"/>
<path d="M113.181 171.567C113.312 171.424 113.294 171.209 113.141 171.087C112.988 170.964 112.758 170.98 112.627 171.123L110.248 173.706C110.117 173.849 110.135 174.064 110.288 174.186C110.441 174.309 110.671 174.292 110.803 174.15L113.181 171.567Z" fill="#FF562B"/>
<path fill-rule="evenodd" clip-rule="evenodd" d="M215.249 152.672C215.252 152.503 215.401 152.368 215.582 152.371C218.003 152.408 221.029 153.397 221.931 156.344C222.376 157.801 222.286 159.696 221.39 162.12C220.493 164.545 218.786 167.518 215.973 171.148C215.866 171.284 215.659 171.315 215.511 171.216C215.365 171.117 215.332 170.926 215.436 170.789C218.233 167.189 219.901 164.27 220.769 161.921C221.636 159.571 221.698 157.811 221.299 156.512C220.514 153.946 217.867 153.019 215.57 152.983C215.389 152.981 215.246 152.841 215.249 152.672ZM214.172 153.552L214.552 153.629C216.26 153.972 218.266 155.23 218.734 157.86C219.2 160.463 218.143 164.339 213.97 169.912L213.319 170.779L214.172 153.552ZM214.791 154.319L214.082 168.671C217.67 163.632 218.485 160.197 218.085 157.961C217.706 155.818 216.194 154.719 214.791 154.319Z" fill="#993F06"/>
<path fill-rule="evenodd" clip-rule="evenodd" d="M210.451 151.379C210.454 151.21 210.603 151.076 210.784 151.079C213.086 151.119 214.744 151.875 215.909 153.139C217.063 154.391 217.71 156.112 218.067 158.044C218.609 160.986 218.492 164.519 218.382 167.82C218.349 168.842 218.315 169.841 218.303 170.794C218.289 171.807 218.26 172.911 218.226 174.08C218.124 177.627 218.008 181.78 218.314 185.857C218.721 191.285 219.877 196.496 222.757 199.904C226.644 204.502 235.4 214.671 236.749 216.164C236.867 216.293 236.85 216.486 236.709 216.595C236.572 216.704 236.364 216.688 236.246 216.558C234.888 215.057 226.127 204.88 222.241 200.283L222.499 200.093L222.241 200.283C219.231 196.721 218.069 191.347 217.659 185.9C217.352 181.79 217.47 177.592 217.569 174.041C217.601 172.878 217.633 171.785 217.647 170.787C217.661 169.805 217.692 168.786 217.727 167.752C217.835 164.464 217.95 161.022 217.419 158.148C217.072 156.265 216.455 154.669 215.411 153.538C214.38 152.42 212.906 151.728 210.772 151.691C210.591 151.688 210.447 151.548 210.451 151.379Z" fill="#FF724F"/>
<path fill-rule="evenodd" clip-rule="evenodd" d="M210.497 148.373C218.345 169.233 232.187 194.375 241.983 214.05C242.014 214.13 242.049 214.208 242.081 214.285C242.576 215.418 242.952 216.277 241.54 216.896C240.035 217.557 239.343 216.783 238.46 215.226C238.196 214.76 236.71 212.367 234.656 209.051C225.55 194.374 207.929 164.026 207.929 164.026L147.499 229.543L143.958 229.932C127.837 226.825 87.2537 219.1 78.6522 217.169C77.786 216.974 77.3206 216.067 77.4806 215.25C77.6673 214.293 78.6287 213.766 79.6572 213.926L142.289 223.662L121.922 162.936L125.632 162.544L205.11 156.326C203.958 152.963 205.496 149.584 209.16 148.697L210.497 148.373ZM160.987 163.709C152.078 164.397 136.12 165.271 129.085 165.625L147.246 218.833C161.519 202.938 193.042 169.17 198.45 163.385C190.152 162.768 172.123 162.85 160.987 163.709Z" fill="#FF562B"/>
<path d="M160.813 163.714C151.904 164.401 135.946 165.275 128.911 165.629L147.072 218.836C157.771 206.922 172.286 198.012 185.197 188.257L147.325 229.548L143.784 229.935C127.663 226.829 93.2705 220.128 84.6692 218.196C83.8028 218.002 83.3375 217.094 83.4973 216.277C83.684 215.321 84.6457 214.794 85.6742 214.953L142.115 223.666L134.117 199.819L128.911 165.629L126.067 174.753L121.748 162.94L125.458 162.549L191.782 157.338C208.403 156.457 208.823 161.771 206.954 164.538C196.204 176.257 182.96 185.337 169.542 194.294C182.277 180.521 195.017 166.875 198.276 163.39C189.978 162.772 171.949 162.854 160.813 163.714Z" fill="#FF562B"/>
<path d="M127.575 162.382L140.483 161.368C147.254 163.384 152.467 164.012 155.546 164.09C146.568 164.692 134.709 165.337 128.912 165.629L128.887 165.701C128.209 164.737 127.663 163.509 127.575 162.382Z" fill="#FFA58E"/>
<path d="M128.934 165.764L128.913 165.629L128.982 165.831C128.966 165.809 128.95 165.787 128.934 165.764Z" fill="#C7DD7B"/>
<path d="M173.099 161.191C166.017 161.198 161.851 160.786 160.653 160.579C162.159 160.548 173.999 159.438 184.738 159.564C193.33 159.665 196.52 161.289 197.041 162.088C192.011 161.786 180.181 161.185 173.099 161.191Z" fill="#FFA58E"/>
<path d="M238.286 215.229C239.169 216.787 239.86 217.561 241.368 216.9C242.778 216.28 242.404 215.421 241.909 214.288C221.646 179.342 219.291 176.918 214.332 174.979C222.167 189.02 235.189 209.76 238.286 215.229Z" fill="#FF562B"/>
<path d="M78.246 217.263C77.559 217.849 77.3952 218.335 77.3992 218.505C76.8525 218.517 76.4162 218.627 76.3188 219.14C76.2216 219.652 76.1146 219.756 75.684 220.071C75.2533 220.387 74.7111 220.602 74.3755 220.302C74.0398 220.003 73.7073 219.806 73.3861 220.119C73.065 220.431 73.2911 220.733 73.967 221.536C74.643 222.338 75.0568 221.309 75.5966 220.992C76.1367 220.675 77.3526 221.16 77.7999 221.559C78.2474 221.958 78.0405 222.473 79.0255 222.453C80.0104 222.432 80.239 222.836 80.7887 222.927C81.3382 223.017 82.5396 222.891 82.7296 221.662C82.9196 220.433 81.6965 219.642 80.673 218.03C79.6494 216.417 79.1045 216.531 78.246 217.263Z" fill="#FF562B"/>
<path fill-rule="evenodd" clip-rule="evenodd" d="M81.8017 210.008C79.2243 208.784 76.7554 208.374 74.9251 208.853C73.0715 209.338 71.8861 210.275 71.2331 211.385C70.578 212.497 70.4481 213.801 70.7421 215.029C70.9775 216.014 71.5471 217.111 72.1726 218.091C72.7967 219.068 73.4673 219.913 73.8915 220.389L73.5545 220.65C73.1163 220.158 72.4327 219.296 71.7964 218.3C71.162 217.306 70.5651 216.165 70.3147 215.118C70.0011 213.807 70.1359 212.4 70.8494 211.188C71.5647 209.973 72.8519 208.971 74.8067 208.46C76.7856 207.942 79.3737 208.397 82.0007 209.644C84.6338 210.894 87.3349 212.952 89.5532 215.686L89.204 215.932C87.0237 213.245 84.3728 211.228 81.8017 210.008Z" fill="#12C65A"/>
<path d="M79.1497 218.469C79.5728 218.46 79.9082 218.133 79.8989 217.739C79.8896 217.345 79.5391 217.032 79.116 217.041C78.6929 217.049 78.3575 217.376 78.3669 217.771C78.3762 218.165 78.7267 218.478 79.1497 218.469Z" fill="#00FFFF"/>
<path fill-rule="evenodd" clip-rule="evenodd" d="M79.411 227.726C79.4453 227.623 79.5658 226.865 80.5 224.668C80.6386 224.342 80.9123 223.868 81.1864 223.388C81.5187 222.808 81.855 222.22 81.9669 221.882C82.1116 221.446 81.9884 221.271 81.7423 220.92C81.6404 220.775 81.5175 220.6 81.3836 220.363C80.9265 219.556 79.9391 219.474 79.1755 219.592C78.5604 219.687 78.013 219.648 77.7662 219.63C77.7067 219.626 77.6645 219.623 77.6433 219.623C77.5338 219.626 77.2103 219.836 77.7648 220.131C78.3191 220.426 78.7638 220.723 79.4374 221.424C79.4997 221.489 79.5619 221.552 79.6232 221.613C80.2235 222.222 80.7214 222.726 80.1494 223.757C80.124 223.803 80.0986 223.848 80.0738 223.893C79.4863 224.951 78.4327 227.661 78.652 228.048C78.8806 228.451 79.1041 228.651 79.4277 228.44C79.7513 228.229 79.6376 228.027 79.411 227.726ZM80.8745 222.007C80.6003 221.522 79.7101 220.602 79.299 220.202C79.7318 219.989 80.284 220.182 80.7361 220.785C81.1884 221.388 81.3075 221.794 80.8745 222.007Z" fill="#12C65A"/>
<path d="M122.431 164.973L78.9215 213.91C79.1039 213.894 79.2928 213.9 79.4838 213.93L81.9677 214.316L123.798 169.049L122.431 164.973Z" fill="#FF562B"/>
<path fill-rule="evenodd" clip-rule="evenodd" d="M78.9214 213.911C79.1021 213.894 79.289 213.9 79.4783 213.929C79.4803 213.929 79.482 213.93 79.4838 213.93L81.9676 214.316L123.938 168.89L122.571 164.815L78.9214 213.911ZM79.8043 213.563L81.7953 213.872L123.443 168.794L122.392 165.66L79.8043 213.563Z" fill="#FF562B"/>
<path d="M239.932 214.227L235.482 214.943C234.899 215.037 234.507 215.553 234.608 216.095C234.709 216.637 235.263 217 235.844 216.907L240.296 216.19C240.879 216.096 241.266 215.581 241.165 215.039C241.066 214.497 240.515 214.133 239.932 214.227Z" fill="#FFFBF6"/>
<path d="M155.66 228.365C156.904 228.024 157.617 226.808 157.252 225.648C156.887 224.488 155.582 223.824 154.338 224.164C153.256 224.46 152.576 225.418 152.657 226.425L137.379 243.797L139.889 245.631L155.66 228.365Z" fill="#FFC700"/>
<path d="M154.139 228.992L152.994 228.113L146.865 235.048L148.01 235.926L154.139 228.992Z" fill="#FEF0C2"/>
<path d="M146.227 246.561L146.227 246.561C146.504 246.67 146.634 246.97 146.515 247.23L145.182 250.143C145.063 250.403 144.742 250.523 144.465 250.413L129.334 244.397C129.334 244.397 129.334 244.397 129.334 244.397C129.056 244.285 128.927 243.987 129.046 243.728L130.379 240.814C130.498 240.555 130.819 240.435 131.096 240.545L146.227 246.561Z" fill="#FFC700" stroke="#C09706"/>
<path d="M137.045 248.697C138.702 249.354 140.619 248.636 141.326 247.092C142.033 245.546 141.262 243.759 139.605 243.099C137.947 242.442 136.031 243.16 135.324 244.704C134.617 246.25 135.387 248.035 137.045 248.697Z" fill="#FF562B"/>
<path d="M137.331 248.073C138.62 248.586 140.111 248.026 140.661 246.825C141.21 245.624 140.611 244.233 139.322 243.722C138.033 243.21 136.542 243.767 135.992 244.97C135.443 246.171 136.042 247.56 137.331 248.073Z" fill="#FEF0C2"/>
<path d="M154.611 224.938C153.875 225.076 153.398 225.744 153.545 226.43C153.693 227.116 154.409 227.561 155.145 227.423C155.881 227.286 156.359 226.618 156.211 225.932C156.064 225.246 155.347 224.801 154.611 224.938Z" fill="#252120"/>
<path d="M166.923 222.208L142.328 224.477L142.498 226.082L167.094 223.813L166.923 222.208Z" fill="#0F141A"/>
<path d="M159.054 237.35L156.62 214.423L154.898 214.582L157.332 237.509L159.054 237.35Z" fill="#0F141A"/>
<path d="M167.235 226.141L142.64 228.41L142.81 230.015L167.406 227.746L167.235 226.141Z" fill="#0F141A"/>
<path d="M154.835 237.641L152.401 214.713L150.679 214.872L153.113 237.8L154.835 237.641Z" fill="#0F141A"/>
<path fill-rule="evenodd" clip-rule="evenodd" d="M152.855 215.326C146.567 216.458 142.455 222.128 143.67 227.989C144.885 233.85 150.967 237.683 157.254 236.552C163.542 235.418 167.654 229.75 166.439 223.888C165.224 218.027 159.142 214.194 152.855 215.326ZM141.95 228.299C140.552 221.552 145.285 215.026 152.523 213.723C159.76 212.419 166.76 216.832 168.159 223.578C169.557 230.326 164.824 236.851 157.587 238.154C150.349 239.458 143.349 235.044 141.95 228.299Z" fill="#0D1116"/>
<path fill-rule="evenodd" clip-rule="evenodd" d="M152.813 215.124C159.22 213.97 165.418 217.876 166.656 223.849C167.894 229.823 163.703 235.6 157.296 236.752C150.889 237.907 144.691 234 143.453 228.028C142.215 222.055 146.406 216.278 152.813 215.124ZM152.564 213.925C145.447 215.207 140.792 221.625 142.167 228.26C143.542 234.894 150.427 239.234 157.545 237.951C164.662 236.671 169.317 230.253 167.942 223.617C166.567 216.983 159.682 212.643 152.564 213.925ZM143.67 227.989C142.455 222.128 146.567 216.458 152.855 215.326C159.142 214.194 165.224 218.027 166.439 223.888C167.654 229.75 163.542 235.418 157.254 236.552C150.967 237.683 144.885 233.85 143.67 227.989ZM152.523 213.723C145.285 215.026 140.552 221.552 141.95 228.299C143.349 235.044 150.349 239.458 157.587 238.154C164.824 236.851 169.557 230.326 168.159 223.578C166.76 216.832 159.76 212.419 152.523 213.723Z" fill="#12181E"/>
<path d="M155.382 227.481C156.102 227.284 156.515 226.58 156.304 225.908C156.092 225.236 155.337 224.852 154.617 225.049C153.896 225.246 153.484 225.95 153.695 226.621C153.906 227.293 154.662 227.678 155.382 227.481Z" fill="#252120"/>
<path d="M154.418 224.034C153.147 224.272 152.323 225.425 152.577 226.611C152.832 227.796 154.07 228.564 155.341 228.327C156.446 228.12 157.214 227.222 157.228 226.212L168.503 214.729L166.175 212.697L154.418 224.034Z" fill="#FFC700"/>
<path d="M154.537 225.037C153.8 225.174 153.323 225.842 153.471 226.528C153.619 227.214 154.335 227.659 155.071 227.521C155.807 227.384 156.284 226.716 156.137 226.03C155.989 225.344 155.273 224.899 154.537 225.037Z" fill="#FEF0C2"/>
<path d="M156.133 223.701L157.238 224.623L163.664 217.926L162.559 217.004L156.133 223.701Z" fill="#FEF0C2"/>
<path d="M176.902 214.796L177 214.844L176.902 214.796L175.301 217.59C175.158 217.839 174.827 217.932 174.561 217.8L160.053 210.573C159.787 210.441 159.686 210.132 159.828 209.884L161.43 207.089C161.572 206.841 161.903 206.747 162.17 206.88L176.678 214.106C176.944 214.239 177.045 214.548 176.902 214.796Z" fill="#FFC700"/>
<path d="M176.902 214.796L177 214.844L176.902 214.796ZM176.902 214.796L175.301 217.59C175.158 217.839 174.827 217.932 174.561 217.8L160.053 210.573C159.787 210.441 159.686 210.132 159.828 209.884L161.43 207.089C161.572 206.841 161.903 206.747 162.17 206.88L176.678 214.106C176.944 214.239 177.045 214.548 176.902 214.796Z" stroke="#C09706"/>
<path d="M170.318 209.289C168.728 208.498 166.752 209.057 165.902 210.538C165.053 212.02 165.653 213.862 167.243 214.654C168.832 215.446 170.808 214.886 171.658 213.405C172.507 211.923 171.907 210.081 170.318 209.289Z" fill="#FF562B"/>
<path d="M169.973 209.885C168.737 209.27 167.2 209.705 166.539 210.857C165.879 212.009 166.345 213.442 167.581 214.058C168.818 214.674 170.355 214.239 171.016 213.086C171.676 211.934 171.209 210.501 169.973 209.885Z" fill="#FEF0C2"/>
<path d="M125.189 161.836L119.564 163.093C118.71 163.284 118.184 164.083 118.389 164.879C118.593 165.675 119.451 166.166 120.305 165.975L125.93 164.718C126.784 164.527 127.31 163.728 127.106 162.931C126.901 162.136 126.043 161.645 125.189 161.836Z" fill="#FF562B"/>
<path fill-rule="evenodd" clip-rule="evenodd" d="M125.292 162.236L119.667 163.493C119.05 163.631 118.67 164.208 118.818 164.783C118.966 165.358 119.586 165.713 120.202 165.575L125.827 164.318C126.444 164.18 126.824 163.602 126.676 163.027C126.528 162.452 125.909 162.098 125.292 162.236ZM127.106 162.931C127.31 163.728 126.784 164.527 125.93 164.718L120.305 165.975C119.451 166.166 118.593 165.675 118.389 164.879C118.184 164.083 118.71 163.284 119.564 163.093L125.189 161.836C126.043 161.645 126.901 162.136 127.106 162.931Z" fill="#FFA58E"/>
<path d="M166.386 188.372L176.766 191.411L174.925 207.294L164.864 202.963L166.386 188.372Z" fill="url(#paint5_linear)"/>
<path d="M184.963 215.744C182.404 212.82 175.861 204.81 175.28 204.096C170.032 204.772 166.42 200.956 165.27 198.963C161.812 201.175 159.911 204.622 159.67 205.539L183.729 217.875C185.289 218.727 186.208 217.166 184.963 215.744Z" fill="#161616"/>
<path d="M175.279 204.095C170.03 204.771 166.418 200.955 165.268 198.963C164.792 199.267 164.35 199.586 163.94 199.911C165.442 202.346 169.974 206.789 176.082 205.079C175.666 204.571 175.38 204.221 175.279 204.095Z" fill="#FF562B"/>
<path d="M172.098 126.369C183.019 126.843 188.385 130.02 188.53 136.178C189.047 158.027 180.529 198.756 179.877 201.081C179.224 203.406 165.027 199.44 164.933 195.446C164.838 191.452 164.702 161.314 164.506 153.017C164.394 148.29 135.897 155.402 119.002 151.447C102.107 147.492 96.5006 146.803 102.121 125.851C126.186 124.07 147.982 125.323 172.098 126.369Z" fill="#141414"/>
<path d="M172.098 126.369C183.019 126.843 188.385 130.02 188.53 136.178C189.047 158.027 180.529 198.756 179.877 201.081C179.224 203.406 165.027 199.44 164.933 195.446C164.838 191.452 164.702 161.314 164.506 153.017C164.394 148.29 135.897 155.402 119.002 151.447C102.107 147.492 96.5006 146.803 102.121 125.851C126.186 124.07 147.982 125.323 172.098 126.369Z" fill="url(#paint6_linear)"/>
<path d="M172.098 126.369C183.019 126.843 188.385 130.02 188.53 136.178C189.047 158.027 180.529 198.756 179.877 201.081C179.224 203.406 165.027 199.44 164.933 195.446C164.838 191.452 164.702 161.314 164.506 153.017C164.394 148.29 135.897 155.402 119.002 151.447C102.107 147.492 96.5006 146.803 102.121 125.851C126.186 124.07 147.982 125.323 172.098 126.369Z" fill="url(#paint7_linear)"/>
<path d="M219.882 138.863L224.269 131.391L227.743 135.822C229.926 134.679 238.974 133.431 236.579 142.621C236.075 144.552 222.676 141.642 219.882 138.863Z" fill="url(#paint8_linear)"/>
<path d="M227.149 132.163C220.19 127.071 201.092 110.64 201.092 110.64C198.814 102.537 197.306 79.4741 191.84 73.7644L180.672 92.914C180.672 92.914 186.501 115.442 191.592 121.753C193.097 123.619 209.143 134.138 221.357 140.376C223.755 141.601 228.692 133.294 227.149 132.163Z" fill="#FFBF30"/>
<path d="M227.149 132.163C220.19 127.071 201.092 110.64 201.092 110.64C198.814 102.537 197.306 79.4741 191.84 73.7644L180.672 92.914C180.672 92.914 186.501 115.442 191.592 121.753C193.097 123.619 209.143 134.138 221.357 140.376C223.755 141.601 228.692 133.294 227.149 132.163Z" fill="url(#paint9_linear)"/>
<path d="M227.149 132.163C220.19 127.071 201.092 110.64 201.092 110.64C198.814 102.537 197.306 79.4741 191.84 73.7644L180.672 92.914C180.672 92.914 186.501 115.442 191.592 121.753C193.097 123.619 209.143 134.138 221.357 140.376C223.755 141.601 228.692 133.294 227.149 132.163Z" fill="url(#paint10_linear)"/>
<path d="M191.592 121.753C193.097 123.619 209.143 134.137 221.357 140.376C223.755 141.601 228.692 133.293 227.149 132.163C220.19 127.071 201.092 110.64 201.092 110.64C198.814 102.537 197.306 79.4737 191.84 73.7642" stroke="#4BE9D9"/>
<path d="M183.609 55.2711C183.609 55.2711 183.694 57.2589 183.992 58.1946C185.291 62.2639 188.71 64.2854 192.206 64.7307C192.206 64.7307 191.491 71.2891 190.935 74.9231C186.968 77.0628 179.281 75.3306 180.283 70.5746C181.286 65.8186 182.607 60.0271 183.609 55.2711Z" fill="#F4B88E"/>
<path d="M183.609 55.2711C183.609 55.2711 183.694 57.2589 183.992 58.1946C185.291 62.2639 188.71 64.2854 192.206 64.7307C192.206 64.7307 191.491 71.2891 190.935 74.9231C186.968 77.0628 179.281 75.3306 180.283 70.5746C181.286 65.8186 182.607 60.0271 183.609 55.2711Z" fill="url(#paint11_linear)"/>
<path d="M183.609 55.2711C183.609 55.2711 183.694 57.2589 183.992 58.1946C185.291 62.2639 188.71 64.2854 192.206 64.7307C192.206 64.7307 191.491 71.2891 190.935 74.9231C186.968 77.0628 179.281 75.3306 180.283 70.5746C181.286 65.8186 182.607 60.0271 183.609 55.2711Z" fill="url(#paint12_linear)"/>
<path d="M100.264 144.799C101.352 146.577 102.971 139.035 112.264 140.772C121.558 142.509 125.842 133.776 134.079 133.606C142.316 133.437 145.572 126.803 145.914 125.532C147.442 119.858 169.397 103.345 173.333 105.028C173.333 105.028 184.682 101.176 188.89 95.7043C191.982 91.6824 195.733 77.1478 191.239 72.8145C189.875 76.9954 180.445 73.1763 180.374 70.1476C137.083 71.0367 86.306 121.98 100.264 144.799Z" fill="#FFC542"/>
<path d="M100.264 144.799C101.352 146.577 102.971 139.035 112.264 140.772C121.558 142.509 125.842 133.776 134.079 133.606C142.316 133.437 145.572 126.803 145.914 125.532C147.442 119.858 169.397 103.345 173.333 105.028C173.333 105.028 184.682 101.176 188.89 95.7043C191.982 91.6824 195.733 77.1478 191.239 72.8145C189.875 76.9954 180.445 73.1763 180.374 70.1476C137.083 71.0367 86.306 121.98 100.264 144.799Z" fill="url(#paint13_linear)"/>
<path d="M100.264 144.799C101.352 146.577 102.971 139.035 112.264 140.772C121.558 142.509 125.842 133.776 134.079 133.606C142.316 133.437 145.572 126.803 145.914 125.532C147.442 119.858 169.397 103.345 173.333 105.028C173.333 105.028 184.682 101.176 188.89 95.7043C191.982 91.6824 195.733 77.1478 191.239 72.8145C189.875 76.9954 180.445 73.1763 180.374 70.1476C137.083 71.0367 86.306 121.98 100.264 144.799Z" fill="#12C65A"/>
<path d="M172.662 104.63C168.725 102.947 146.77 119.46 145.242 125.134C144.9 126.405 141.644 133.04 133.407 133.209C125.17 133.378 120.886 142.111 111.592 140.374C102.299 138.638 100.694 146.797 99.6068 145.019C85.6487 122.199 136.411 70.6389 179.702 69.7499" stroke="#12C65A"/>
<path d="M103.552 88.1661C113.754 69.6371 144.714 51.471 148.832 48.2182C157.238 51.9638 174.673 65.953 180.274 70.5114C169.735 69.9788 142.717 76.3892 116.054 102.115C111.698 101.621 100.846 93.0811 103.552 88.1661Z" fill="#FF7654"/>
<path d="M103.552 88.1661C113.754 69.6371 144.714 51.471 148.832 48.2182C157.238 51.9638 174.673 65.953 180.274 70.5114C169.735 69.9788 142.717 76.3892 116.054 102.115C111.698 101.621 100.846 93.0811 103.552 88.1661Z" fill="url(#paint14_linear)"/>
<path fill-rule="evenodd" clip-rule="evenodd" d="M151.696 41.3486C151.683 41.5187 151.525 41.6467 151.342 41.6346C150.712 41.593 149.236 41.8329 146.911 42.7062C144.602 43.5737 141.49 45.0527 137.604 47.4487C137.451 47.5426 137.246 47.5035 137.145 47.3613C137.044 47.2191 137.086 47.0277 137.239 46.9338C141.155 44.5195 144.306 43.0194 146.664 42.1337C149.006 41.2539 150.601 40.9667 151.389 41.0189C151.571 41.031 151.709 41.1786 151.696 41.3486Z" fill="#FF7957"/>
<path d="M151.484 41.0388L162.785 49.2726C158.56 47.4592 153.624 47.4078 148.816 48.7571C140.53 52.8868 109.587 78.7113 103.552 88.1642C109.486 72.6014 133.546 53.6882 151.484 41.0388Z" fill="#FF5F37"/>
<path fill-rule="evenodd" clip-rule="evenodd" d="M151.486 40.9093L151.418 40.957C142.447 47.2829 131.943 55.1765 122.94 63.4359C113.939 71.6924 106.424 80.3252 103.448 88.1301L103.647 88.2172C105.149 85.8646 108.207 82.4854 112.086 78.6706C115.963 74.858 120.653 70.6163 125.415 66.5406C130.177 62.4646 135.008 58.5556 139.167 55.4075C143.321 52.2626 146.797 49.8829 148.859 48.853C153.643 47.5124 158.546 47.5669 162.739 49.3664L162.853 49.1917L151.486 40.9093ZM162.047 48.8658C157.973 47.3525 153.319 47.3865 148.785 48.659L148.775 48.6619L148.765 48.6668C146.683 49.7043 143.188 52.0986 139.028 55.2478C134.865 58.3988 130.03 62.3108 125.266 66.3889C120.501 70.4669 115.807 74.7122 111.925 78.5292C108.486 81.9116 105.68 84.9627 104.032 87.2658C107.215 79.7543 114.457 71.5062 123.095 63.5826C132.066 55.3531 142.531 47.4844 151.483 41.1688L162.047 48.8658Z" fill="#FF5F37"/>
<path d="M148.722 48.6819C157.127 52.4273 174.698 65.9043 180.298 70.4627C174.174 55.2274 165.093 50.7139 159.358 46.9636C154.777 43.9689 149.778 44.794 148.722 48.6819Z" fill="#FF7957"/>
<path fill-rule="evenodd" clip-rule="evenodd" d="M180.079 70.1286C177.05 62.7408 173.339 57.9283 169.677 54.4843C166.758 51.7385 163.871 49.8626 161.375 48.2407C160.684 47.792 160.023 47.3626 159.4 46.9397L159.53 46.7732C160.148 47.1925 160.805 47.6195 161.493 48.0668C163.991 49.6895 166.899 51.5789 169.834 54.3395C173.581 57.8634 177.374 62.8072 180.441 70.4384L180.265 70.5519C177.467 68.2743 171.654 63.7883 165.491 59.4041C159.326 55.0178 152.819 50.7402 148.628 48.8726L148.723 48.687C152.938 50.5651 159.462 54.8555 165.625 59.2406C171.558 63.4614 177.167 67.7764 180.079 70.1286Z" fill="#00A3FF"/>
<path d="M121.477 81.9955C122.449 83.0929 122.96 84.1797 123.011 85.2559C123.062 86.3241 122.633 87.2081 121.724 87.9078C120.952 88.5025 120.106 88.7327 119.187 88.5984L122.163 91.9567L120.121 93.5285L111.382 83.6644L113.275 82.2067L113.964 82.8504C113.968 81.9165 114.368 81.1432 115.164 80.5306C116.106 79.8053 117.126 79.5664 118.225 79.8136C119.323 80.0609 120.378 80.7553 121.389 81.8966L121.477 81.9955ZM119.313 83.4288C118.725 82.766 118.145 82.3525 117.572 82.1883C117.003 82.0205 116.479 82.1214 115.999 82.4912C115.358 82.9844 115.12 83.5518 115.284 84.1933L117.869 87.1102C118.535 87.3878 119.188 87.2801 119.828 86.787C120.803 86.0365 120.631 84.917 119.313 83.4288Z" fill="#FDF8D2"/>
<path d="M121.477 81.9955C122.449 83.0929 122.96 84.1797 123.011 85.2559C123.062 86.3241 122.633 87.2081 121.724 87.9078C120.952 88.5025 120.106 88.7327 119.187 88.5984L122.163 91.9567L120.121 93.5285L111.382 83.6644L113.275 82.2067L113.964 82.8504C113.968 81.9165 114.368 81.1432 115.164 80.5306C116.106 79.8053 117.126 79.5664 118.225 79.8136C119.323 80.0609 120.378 80.7553 121.389 81.8966L121.477 81.9955ZM119.313 83.4288C118.725 82.766 118.145 82.3525 117.572 82.1883C117.003 82.0205 116.479 82.1214 115.999 82.4912C115.358 82.9844 115.12 83.5518 115.284 84.1933L117.869 87.1102C118.535 87.3878 119.188 87.2801 119.828 86.787C120.803 86.0365 120.631 84.917 119.313 83.4288Z" fill="url(#paint15_linear)"/>
<path d="M129.23 81.9075L127.182 83.4848L120.869 76.36L122.918 74.7827L129.23 81.9075ZM119.115 74.6086C118.863 74.3232 118.756 74.0105 118.795 73.6701C118.839 73.3263 119.037 73.0184 119.39 72.7464C119.739 72.4781 120.099 72.3563 120.469 72.3812C120.84 72.4061 121.151 72.5611 121.404 72.8465C121.661 73.1362 121.765 73.4549 121.716 73.8023C121.673 74.1463 121.479 74.4506 121.135 74.7153C120.791 74.9799 120.432 75.1017 120.056 75.0804C119.686 75.0557 119.372 74.8983 119.115 74.6086Z" fill="#FDF8D2"/>
<path d="M129.23 81.9075L127.182 83.4848L120.869 76.36L122.918 74.7827L129.23 81.9075ZM119.115 74.6086C118.863 74.3232 118.756 74.0105 118.795 73.6701C118.839 73.3263 119.037 73.0184 119.39 72.7464C119.739 72.4781 120.099 72.3563 120.469 72.3812C120.84 72.4061 121.151 72.5611 121.404 72.8465C121.661 73.1362 121.765 73.4549 121.716 73.8023C121.673 74.1463 121.479 74.4506 121.135 74.7153C120.791 74.9799 120.432 75.1017 120.056 75.0804C119.686 75.0557 119.372 74.8983 119.115 74.6086Z" fill="url(#paint16_linear)"/>
<path d="M133.134 76.3211L136.871 73.4441L138.23 74.9784L131.887 79.8622L130.86 78.7033L130.535 71.51L127.046 74.1967L125.68 72.6557L131.805 67.9405L132.802 69.0664L133.134 76.3211Z" fill="#FDF8D2"/>
<path d="M133.134 76.3211L136.871 73.4441L138.23 74.9784L131.887 79.8622L130.86 78.7033L130.535 71.51L127.046 74.1967L125.68 72.6557L131.805 67.9405L132.802 69.0664L133.134 76.3211Z" fill="url(#paint17_linear)"/>
<path d="M141.724 69.7073L145.461 66.8303L146.82 68.3646L140.477 73.2484L139.45 72.0895L139.125 64.8962L135.636 67.5829L134.27 66.0419L140.395 61.3267L141.392 62.4526L141.724 69.7073Z" fill="#FDF8D2"/>
<path d="M141.724 69.7073L145.461 66.8303L146.82 68.3646L140.477 73.2484L139.45 72.0895L139.125 64.8962L135.636 67.5829L134.27 66.0419L140.395 61.3267L141.392 62.4526L141.724 69.7073Z" fill="url(#paint18_linear)"/>
<path d="M153.758 63.0234C153.512 62.9247 153.255 62.7643 152.987 62.5424C152.948 63.4367 152.532 64.1884 151.741 64.7975C150.992 65.3739 150.192 65.6507 149.34 65.6275C148.492 65.6006 147.796 65.2801 147.251 64.6655C146.582 63.9103 146.368 63.1007 146.608 62.2362C146.853 61.3684 147.541 60.4953 148.672 59.6171L149.612 58.8937L149.25 58.4856C148.958 58.1563 148.633 57.9635 148.275 57.9075C147.92 57.8476 147.548 57.9683 147.157 58.2692C146.813 58.5338 146.611 58.8191 146.549 59.125C146.492 59.4275 146.582 59.7123 146.819 59.9802L144.778 61.552C144.412 61.1392 144.211 60.6522 144.173 60.0907C144.135 59.5292 144.278 58.9575 144.602 58.3756C144.922 57.7894 145.393 57.257 146.015 56.7784C146.956 56.0533 147.899 55.7003 148.843 55.7194C149.788 55.7307 150.614 56.1356 151.322 56.9345L154.058 60.0229C154.662 60.6953 155.216 61.1289 155.721 61.3233L155.82 61.4353L153.758 63.0234ZM150.897 62.9996C151.198 62.7677 151.422 62.4922 151.567 62.1735C151.709 61.8503 151.747 61.5365 151.683 61.2313L150.598 60.0065L149.835 60.594C148.813 61.3808 148.561 62.1288 149.078 62.838L149.17 62.9554C149.38 63.1924 149.643 63.3189 149.958 63.3349C150.273 63.3506 150.586 63.239 150.897 62.9996Z" fill="#FDF8D2"/>
<path d="M153.758 63.0234C153.512 62.9247 153.255 62.7643 152.987 62.5424C152.948 63.4367 152.532 64.1884 151.741 64.7975C150.992 65.3739 150.192 65.6507 149.34 65.6275C148.492 65.6006 147.796 65.2801 147.251 64.6655C146.582 63.9103 146.368 63.1007 146.608 62.2362C146.853 61.3684 147.541 60.4953 148.672 59.6171L149.612 58.8937L149.25 58.4856C148.958 58.1563 148.633 57.9635 148.275 57.9075C147.92 57.8476 147.548 57.9683 147.157 58.2692C146.813 58.5338 146.611 58.8191 146.549 59.125C146.492 59.4275 146.582 59.7123 146.819 59.9802L144.778 61.552C144.412 61.1392 144.211 60.6522 144.173 60.0907C144.135 59.5292 144.278 58.9575 144.602 58.3756C144.922 57.7894 145.393 57.257 146.015 56.7784C146.956 56.0533 147.899 55.7003 148.843 55.7194C149.788 55.7307 150.614 56.1356 151.322 56.9345L154.058 60.0229C154.662 60.6953 155.216 61.1289 155.721 61.3233L155.82 61.4353L153.758 63.0234ZM150.897 62.9996C151.198 62.7677 151.422 62.4922 151.567 62.1735C151.709 61.8503 151.747 61.5365 151.683 61.2313L150.598 60.0065L149.835 60.594C148.813 61.3808 148.561 62.1288 149.078 62.838L149.17 62.9554C149.38 63.1924 149.643 63.3189 149.958 63.3349C150.273 63.3506 150.586 63.239 150.897 62.9996Z" fill="url(#paint19_linear)"/>
<path d="M174.875 70.7134C175.51 70.6539 178.189 70.2383 180.26 70.4402C185.209 94.5664 148.801 105.811 115.967 102.077L118.117 100.082C140.244 101.302 181.223 95.8348 174.875 70.7134Z" fill="url(#paint20_linear)"/>
<path d="M194.74 64.374C197.257 61.5287 199.786 46.135 199.786 46.135L182.95 45.1808C183.362 50.8411 181.623 55.7462 185.086 60.9994C187.644 64.3806 192.222 67.2196 194.74 64.374Z" fill="#F4B88E"/>
<path d="M194.74 64.374C197.257 61.5287 199.786 46.135 199.786 46.135L182.95 45.1808C183.362 50.8411 181.623 55.7462 185.086 60.9994C187.644 64.3806 192.222 67.2196 194.74 64.374Z" fill="url(#paint21_linear)"/>
<path d="M194.74 64.374C197.257 61.5287 199.786 46.135 199.786 46.135L182.95 45.1808C183.362 50.8411 181.623 55.7462 185.086 60.9994C187.644 64.3806 192.222 67.2196 194.74 64.374Z" fill="url(#paint22_linear)"/>
<path d="M195.846 62.0782C197.686 56.9847 199.788 46.135 199.788 46.135L196.781 45.9645C197.96 50.0735 196.649 58.419 195.846 62.0782Z" fill="url(#paint23_linear)"/>
<path d="M185.673 54.7286C187.546 52.1577 188.266 50.16 187.715 48.5241C190.249 49.8492 197.254 54.5735 200.596 49.4087C203.938 44.244 196.095 42.5286 193.284 42.8357C189.585 39.6962 185.94 41.8324 185.687 43.0336C184.474 42.807 178.826 45.1661 178.835 48.9034C178.845 52.7713 182.581 58.6925 182.108 62.3093C183.087 60.2412 183.17 57.0424 183.726 55.9476C181.505 53.3051 185.182 51.0676 185.673 54.7286Z" fill="url(#paint24_linear)"/>
<path d="M185.673 54.7286C187.546 52.1577 188.266 50.16 187.715 48.5241C190.249 49.8492 197.254 54.5735 200.596 49.4087C203.938 44.244 196.095 42.5286 193.284 42.8357C189.585 39.6962 185.94 41.8324 185.687 43.0336C184.474 42.807 178.826 45.1661 178.835 48.9034C178.845 52.7713 182.581 58.6925 182.108 62.3093C183.087 60.2412 183.17 57.0424 183.726 55.9476C181.505 53.3051 185.182 51.0676 185.673 54.7286Z" fill="#1E1E1E"/>
<path d="M187.981 48.6749C188.272 48.7992 188.635 48.9909 189.054 49.2201C193.557 51.4417 197.722 52.6038 199.947 50.2535C196.709 53.6723 191.733 50.6848 189.054 49.2201C188.698 49.0446 188.34 48.8624 187.981 48.6749Z" fill="url(#paint25_linear)"/>
<path d="M188.344 48.7407C188.927 48.9895 189.821 49.4435 190.891 49.8951C194.908 51.4359 198.675 51.5261 200.661 49.43C197.929 52.3135 193.775 51.1128 190.891 49.8951C190.048 49.5718 189.195 49.1849 188.344 48.7407Z" fill="url(#paint26_linear)"/>
<path d="M187.714 48.5246C194.839 51.0085 199.271 50.1493 200.596 49.4091C201.178 48.5109 201.42 47.7172 201.41 47.0201C200.787 48.2433 197.176 50.257 187.714 48.5246Z" fill="url(#paint27_linear)"/>
<path fill-rule="evenodd" clip-rule="evenodd" d="M187.148 55.2913C187.158 55.7003 186.885 56.5401 185.908 56.8228C184.121 57.3397 182.544 58.0431 181.358 57.4362C180.173 56.8294 178.988 55.9529 177.697 53.8489C176.405 51.7452 175.464 50.624 175.508 49.8097C176.031 50.1408 182.911 54.7804 187.148 55.2913ZM180.667 54.4782C181.272 54.6817 184.192 55.9681 183.138 56.3868C182.384 56.6856 181.85 57.0879 181.495 56.6508C181.223 56.3154 179.562 53.9681 180.667 54.4782Z" fill="#0C55DE"/>
<path fill-rule="evenodd" clip-rule="evenodd" d="M187.148 55.2913C187.158 55.7003 186.885 56.5401 185.908 56.8228C184.121 57.3397 182.544 58.0431 181.358 57.4362C180.173 56.8294 178.988 55.9529 177.697 53.8489C176.405 51.7452 175.464 50.624 175.508 49.8097C176.031 50.1408 182.911 54.7804 187.148 55.2913ZM180.667 54.4782C181.272 54.6817 184.192 55.9681 183.138 56.3868C182.384 56.6856 181.85 57.0879 181.495 56.6508C181.223 56.3154 179.562 53.9681 180.667 54.4782Z" fill="#0DBD54"/>
<path d="M175.508 49.8698C175.504 49.7174 175.58 49.3663 175.619 49.2099C176.433 48.7328 179.215 51.2071 180.988 52.1963C182.761 53.1855 185.949 52.3043 187.177 51.7398C188.406 51.1751 191.827 51.1638 194.197 50.569C196.567 49.9743 196.471 50.1275 200.344 49.206C197.169 52.7369 194.955 52.7696 191.853 52.577C188.752 52.3847 187.485 54.3113 187.149 55.2913C180.488 54.6266 176.646 51.1878 176.134 50.6985C175.622 50.2093 175.512 50.0603 175.508 49.8698Z" fill="#0C55DE"/>
<path d="M175.508 49.8698C175.504 49.7174 175.58 49.3663 175.619 49.2099C176.433 48.7328 179.215 51.2071 180.988 52.1963C182.761 53.1855 185.949 52.3043 187.177 51.7398C188.406 51.1751 191.827 51.1638 194.197 50.569C196.567 49.9743 196.471 50.1275 200.344 49.206C197.169 52.7369 194.955 52.7696 191.853 52.577C188.752 52.3847 187.485 54.3113 187.149 55.2913C180.488 54.6266 176.646 51.1878 176.134 50.6985C175.622 50.2093 175.512 50.0603 175.508 49.8698Z" fill="#0DBD54"/>
<path d="M203.039 45.9807C202.658 47.1327 200.885 49.7761 196.848 51.1324C194.926 51.8954 192.897 51.7006 192.089 51.5595C191.282 51.4182 189.767 50.9037 187.293 53.0788C186.953 53.329 186.728 53.6494 186.628 53.8816C186.528 54.1137 186.353 54.1832 185.934 54.08C185.516 53.9769 182.37 53.4172 179.063 51.6901C176.927 50.5373 176.175 49.7968 175.618 49.2099C175.845 48.0806 177.469 42.7799 185.006 39.9414C192.543 37.1028 201.187 40.7516 203.039 45.9807Z" fill="#114DBD"/>
<path d="M203.039 45.9807C202.658 47.1327 200.885 49.7761 196.848 51.1324C194.926 51.8954 192.897 51.7006 192.089 51.5595C191.282 51.4182 189.767 50.9037 187.293 53.0788C186.953 53.329 186.728 53.6494 186.628 53.8816C186.528 54.1137 186.353 54.1832 185.934 54.08C185.516 53.9769 182.37 53.4172 179.063 51.6901C176.927 50.5373 176.175 49.7968 175.618 49.2099C175.845 48.0806 177.469 42.7799 185.006 39.9414C192.543 37.1028 201.187 40.7516 203.039 45.9807Z" fill="#141414"/>
<path d="M183.824 46.2982C182.177 46.7595 180.237 47.9355 179.455 48.5715C178.45 49.3878 179.291 49.5251 180.805 49.3588C181.534 48.6665 183.695 47.2266 186.5 47.0056C187.036 46.1003 185.47 45.8366 183.824 46.2982Z" fill="#2A2A2A"/>
<path d="M183.544 42.5227C185.113 41.838 184.921 42.7968 184.629 43.3618C183.905 43.4951 181.93 44.3947 179.818 46.9265C178.684 47.4263 178.151 47.4343 178.751 46.5804C179.352 45.7262 181.582 43.3786 183.544 42.5227Z" fill="#2A2A2A"/>
<path d="M192.128 41.8852C194.291 42.1036 194.134 43.4747 193.873 43.8088C192.559 42.8838 189.724 43.8528 188.471 44.453C184.927 43.7436 189.964 41.6669 192.128 41.8852Z" fill="#2B2B2B"/>
<path d="M194.911 41.7423C193.626 40.8285 196.378 41.1596 197.274 41.4962C197.969 41.7571 199.23 42.6072 198.462 42.8323C197.628 42.0863 196.034 42.0012 195.341 42.0519C195.175 41.9486 195.029 41.8437 194.911 41.7423Z" fill="#2A2A2A"/>
<path d="M199.195 45.4284C200.869 46.1107 199.954 47.0897 199.392 47.121C198.461 47.1792 197.414 46.8485 196.599 46.4592C197.235 46.7581 198.667 47.2003 199.308 46.5768C199.947 45.9534 199.102 45.4221 198.599 45.2342C198.805 45.2868 199.006 45.351 199.195 45.4284Z" fill="#2A2A2A"/>
<path d="M194.871 47.7996C197.045 47.5903 197.685 49.2604 194.631 50.1651C191.759 51.0159 188.561 51.3154 186.972 50.9355C189.902 51.1191 193.209 50.3063 194.922 49.3568C196.291 48.5974 195.459 48.0022 194.871 47.7996Z" fill="#2A2A2A"/>
<path d="M184.274 51.8914C182.972 52.2234 181.591 51.802 181.063 51.5498C184.722 52.3293 184.322 50.6409 184.118 50.3754C185.324 50.6662 184.913 51.7532 184.274 51.8914Z" fill="#2A2A2A"/>
<path fill-rule="evenodd" clip-rule="evenodd" d="M180.806 49.3594C181.587 48.6594 183.819 47.2088 186.501 47.0062C185.965 47.9115 183.858 48.902 181.778 49.2277C181.433 49.2815 181.107 49.3265 180.806 49.3594ZM184.63 43.3623C183.904 44.3046 182.224 46.0488 179.818 46.9271C180.572 45.9867 182.589 43.9568 184.63 43.3623ZM188.472 44.4536C189.528 44.7781 192.088 45.1037 193.874 43.8094C192.591 43.0257 189.738 43.9122 188.472 44.4536ZM198.276 42.8703C198.348 42.8611 198.412 42.8485 198.465 42.8329C198.103 42.4633 196.972 41.7897 195.342 42.0525C196.122 42.5377 197.34 42.9872 198.276 42.8703ZM199.327 46.531C198.903 47.1922 197.332 46.7588 196.601 46.4596C195.904 46.1262 195.376 45.7495 195.241 45.537C195.057 45.1326 196.993 44.8241 198.601 45.2348C199.056 45.4307 199.725 45.9109 199.327 46.531ZM189.977 48.7428C188.066 49.3478 185.226 50.3599 186.691 50.8557C186.778 50.8852 186.872 50.9121 186.973 50.9362C189.828 51.2264 193.18 50.2419 194.853 49.3852C196.19 48.7002 195.423 48.0431 194.872 47.8C192.943 47.9858 191.838 48.2682 190.502 48.6095C190.332 48.6532 190.157 48.6975 189.977 48.7428Z" fill="#1E1E1E"/>
<path d="M180.438 50.7217C181.177 50.3515 182.174 50.1861 183.057 50.2204C183.293 50.2162 183.739 50.2562 184.128 50.3732C184.363 50.674 184.597 51.362 183.817 51.6121C182.808 51.9353 181.743 51.7718 180.893 51.5369C180.131 51.2421 180.089 50.8966 180.438 50.7217Z" fill="#1E1E1E"/>
<path d="M185.502 58.0842L182.986 58.3018C183.734 62.6435 192.357 64.348 192.454 68.4352C192.487 69.8596 192.592 72.0439 192.196 73.5587L193.608 73.5297C193.608 73.5297 194.47 68.5973 194.149 67.3988C194.082 64.5806 186.269 61.2937 185.502 58.0842Z" fill="#FF491B"/>
<path d="M194.529 65.8282L191.61 66.279C191.349 66.3194 191.216 66.5932 191.355 66.8021L192.434 68.4227C192.512 68.5404 192.658 68.6033 192.805 68.5819L194.208 68.38C194.359 68.3582 194.481 68.2518 194.514 68.1124L194.952 66.2429C195.008 66.0042 194.788 65.7883 194.529 65.8282Z" fill="#FF7957"/>
<path d="M182.496 58.0218C182.452 57.6619 182.407 57.2295 182.391 57.0584C182.466 57.0637 182.652 57.0977 182.79 57.1922C182.895 57.8794 182.977 57.9913 183.159 58.0041C183.34 58.0166 184.501 58.0333 185.079 57.9247C185.542 57.8378 185.476 57.2369 185.385 56.9473L185.875 56.8113L186.018 57.5862C186.098 58.0166 185.919 58.259 185.684 58.349C185.449 58.4389 183.971 58.6765 183.356 58.6764C182.74 58.676 182.551 58.4718 182.496 58.0218Z" fill="#114DBD"/>
<path fill-rule="evenodd" clip-rule="evenodd" d="M191.842 72.3492C191.968 72.6627 192.027 73.2211 191.845 73.7092C191.755 73.9488 191.664 74.0813 191.601 74.1732C191.536 74.2686 191.5 74.3201 191.527 74.4021C191.58 74.563 191.692 74.7451 192.133 74.7439C192.574 74.7429 193.491 74.8634 193.66 74.9075C193.828 74.9516 194.32 74.8262 194.194 74.5128C194.068 74.1995 193.938 73.6475 194.063 73.218C194.188 72.7884 194.251 72.7161 194.378 72.5716C194.505 72.4272 194.555 72.0973 193.989 71.9908C193.422 71.8841 192.344 71.7852 192.121 71.8324C191.898 71.8795 191.671 72.02 191.842 72.3492ZM192.41 72.0971C192.28 72.0843 192.163 72.1726 192.149 72.2943C192.136 72.416 192.23 72.5248 192.361 72.5375L193.801 72.6775C193.932 72.6901 194.049 72.6019 194.062 72.4802C194.076 72.3584 193.981 72.2497 193.85 72.2369L192.41 72.0971Z" fill="#FF491B"/>
<path d="M223.193 145.947L220.137 151.442L226.5 154.988C230.373 154.318 232.456 153.326 233.185 153.798C234.025 154.345 235.601 154.96 235.193 156.113C238.867 155.431 240.493 149.882 234.46 147.216C232.773 146.401 227.795 147.175 227.172 147.154C226.673 147.137 224.311 146.342 223.193 145.947Z" fill="url(#paint28_linear)"/>
<path d="M174.585 128.284C167.772 120.699 161.235 97.7787 158.926 84.6058C158.628 71.9898 173.895 70.4516 175.011 71.5269C176.127 72.6023 186.775 119.195 187.714 120.704C188.654 122.213 222.506 143.103 224.219 145.145C225.934 147.188 221.126 153.411 219.623 152.587C218.12 151.764 180.755 135.154 174.585 128.284Z" fill="#FFBF30"/>
<path d="M174.585 128.284C167.772 120.699 161.235 97.7787 158.926 84.6058C158.628 71.9898 173.895 70.4516 175.011 71.5269C176.127 72.6023 186.775 119.195 187.714 120.704C188.654 122.213 222.506 143.103 224.219 145.145C225.934 147.188 221.126 153.411 219.623 152.587C218.12 151.764 180.755 135.154 174.585 128.284Z" fill="url(#paint29_linear)"/>
<path d="M174.585 128.284C167.772 120.699 161.235 97.7787 158.926 84.6058C158.628 71.9898 173.895 70.4516 175.011 71.5269C176.127 72.6023 186.775 119.195 187.714 120.704C188.654 122.213 222.506 143.103 224.219 145.145C225.934 147.188 221.126 153.411 219.623 152.587C218.12 151.764 180.755 135.154 174.585 128.284Z" fill="url(#paint30_linear)"/>
<path d="M174.585 128.284C167.772 120.699 161.235 97.7787 158.926 84.6058C158.628 71.9898 173.895 70.4516 175.011 71.5269C176.127 72.6023 186.775 119.195 187.714 120.704C188.654 122.213 222.506 143.103 224.219 145.145C225.934 147.188 221.126 153.411 219.623 152.587C218.12 151.764 180.755 135.154 174.585 128.284Z" fill="url(#paint31_linear)"/>
<path d="M174.585 128.285C180.755 135.154 218.122 151.764 219.623 152.588C221.126 153.411 225.934 147.188 224.221 145.146C222.506 143.103 188.654 122.213 187.715 120.704C186.775 119.195 176.127 72.6027 175.011 71.5273" stroke="#4BE9D9"/>
<path d="M317.162 250.703C320.324 246.811 320.694 238.468 320.483 234.782C322.76 235.726 325.333 239.991 326.334 242.005H327.283C326.492 234.045 320.641 231.686 319.85 231.392C308.306 236.551 314.79 247.165 317.162 250.703Z" fill="#C4C4C4"/>
<path d="M317.162 250.703C320.324 246.811 320.694 238.468 320.483 234.782C322.76 235.726 325.333 239.991 326.334 242.005H327.283C326.492 234.045 320.641 231.686 319.85 231.392C308.306 236.551 314.79 247.165 317.162 250.703Z" fill="#0DB751"/>
<path fill-rule="evenodd" clip-rule="evenodd" d="M315.445 238.016C315.895 235.589 316.998 234.275 317.904 233.814L318.002 233.981C317.169 234.404 316.09 235.655 315.646 238.049C315.203 240.44 315.397 243.961 317.101 248.905L316.907 248.963C315.196 244 314.995 240.446 315.445 238.016Z" fill="white"/>
<path d="M341.515 237.878C339.111 238.703 336.402 241.072 335.348 242.153C335.242 242.202 334.937 242.271 334.557 242.153C336.455 238.468 341.199 234.345 342.305 234.782C346.417 236.404 348.315 243.922 348.631 245.838C345.943 246.428 341.989 239.057 341.515 237.878Z" fill="#0DB751"/>
<path fill-rule="evenodd" clip-rule="evenodd" d="M339.656 237.273C339.61 237.304 339.564 237.335 339.519 237.365L339.4 237.21C339.446 237.18 339.492 237.149 339.539 237.118C340.067 236.765 340.714 236.334 341.297 236.043C341.615 235.885 341.922 235.764 342.187 235.722C342.452 235.68 342.7 235.715 342.86 235.901C342.929 235.982 343.031 236.134 343.157 236.339C343.285 236.545 343.441 236.81 343.617 237.118C343.971 237.735 344.41 238.528 344.879 239.382C345.082 239.75 345.29 240.13 345.499 240.512C346.26 241.901 347.036 243.317 347.614 244.319L347.435 244.409C346.855 243.405 346.078 241.986 345.316 240.596C345.108 240.215 344.9 239.836 344.698 239.469C344.229 238.615 343.79 237.823 343.438 237.208C343.261 236.901 343.107 236.638 342.981 236.434C342.853 236.228 342.759 236.087 342.701 236.02C342.608 235.912 342.453 235.873 342.221 235.909C341.988 235.946 341.705 236.055 341.393 236.21C340.822 236.495 340.187 236.919 339.656 237.273Z" fill="white"/>
<path d="M336.138 230.949C332.849 234.723 331.605 240.089 331.394 242.3C328.548 228.001 338.669 220.04 339.459 219.598C342.306 223.578 340.25 226.232 336.138 230.949Z" fill="#0DB751"/>
<path fill-rule="evenodd" clip-rule="evenodd" d="M336.247 226.733C337.365 224.504 338.336 222.193 338.889 220.746L339.081 220.809C338.526 222.261 337.553 224.579 336.432 226.814C335.314 229.045 334.043 231.208 332.891 232.341L332.744 232.21C333.869 231.103 335.128 228.966 336.247 226.733Z" fill="white"/>
<path d="M324.279 216.355C330.984 226.143 332.027 237.829 331.711 242.448C331.236 242.89 330.066 243.509 329.181 242.448C325.069 234.635 324.279 222.399 324.279 216.355Z" fill="#C4C4C4"/>
<path d="M324.279 216.355C330.984 226.143 332.027 237.829 331.711 242.448C331.236 242.89 330.066 243.509 329.181 242.448C325.069 234.635 324.279 222.399 324.279 216.355Z" fill="#3ECD77"/>
<path fill-rule="evenodd" clip-rule="evenodd" d="M330.027 241.862C329.522 231.497 326.341 221.936 324.816 218.455L325.005 218.383C326.537 221.88 329.724 231.463 330.231 241.853L330.027 241.862Z" fill="white"/>
<path d="M347.366 227.705C340.282 230.654 335.454 238.467 333.925 242.004C333.767 236.551 343.571 221.957 348.632 222.988C355.115 224.757 352.901 233.012 351.952 234.634C349.581 226.968 347.999 227.41 347.366 227.705Z" fill="#C4C4C4"/>
<path d="M347.366 227.705C340.282 230.654 335.454 238.467 333.925 242.004C333.767 236.551 343.571 221.957 348.632 222.988C355.115 224.757 352.901 233.012 351.952 234.634C349.581 226.968 347.999 227.41 347.366 227.705Z" fill="#3ECD77"/>
<path fill-rule="evenodd" clip-rule="evenodd" d="M350.832 226.201C351.652 227.399 352.208 228.982 352.526 230.19L352.327 230.235C352.012 229.035 351.462 227.475 350.661 226.303C349.856 225.127 348.827 224.378 347.551 224.702C345.27 225.283 339.86 228.503 336.866 235.701L336.676 235.632C339.691 228.384 345.146 225.117 347.498 224.519C348.91 224.16 350.016 225.008 350.832 226.201Z" fill="white"/>
<path d="M323.962 241.858H339.143L341.673 249.081L338.194 260.727H324.594L321.115 249.081L323.962 241.858Z" fill="#936500"/>
<path fill-rule="evenodd" clip-rule="evenodd" d="M341.673 249.271H321.115V248.891H341.673V249.271Z" fill="white"/>
<path d="M26.0624 31.5532C26.0624 40.1185 33.4063 47.0621 42.4644 47.0621C51.5244 47.0621 58.8682 40.1185 58.8682 31.5532C58.8682 22.9879 51.5244 16.0443 42.4644 16.0443C33.4063 16.0443 26.0624 22.9879 26.0624 31.5532Z" fill="#79570B"/>
<path d="M24.4222 31.5532C24.4222 40.1185 31.7661 47.0621 40.8242 47.0621C49.8842 47.0621 57.228 40.1185 57.228 31.5532C57.228 22.9879 49.8842 16.0443 40.8242 16.0443C31.7661 16.0443 24.4222 22.9879 24.4222 31.5532Z" fill="#FFD578"/>
<path d="M28.4061 31.5532C28.4061 38.0678 33.9668 43.3487 40.8242 43.3487C47.6834 43.3487 53.2441 38.0678 53.2441 31.5532C53.2441 25.0388 47.6834 19.7577 40.8242 19.7577C33.9668 19.7577 28.4061 25.0388 28.4061 31.5532Z" fill="white"/>
<path d="M39.9742 39.6448C39.9742 39.2724 40.2979 38.9705 40.6976 38.9705C41.0972 38.9705 41.4209 39.2724 41.4209 39.6448V40.9934C41.4209 41.3658 41.0972 41.6677 40.6976 41.6677C40.2979 41.6677 39.9742 41.3658 39.9742 40.9934V39.6448Z" fill="#FEB618"/>
<path fill-rule="evenodd" clip-rule="evenodd" d="M40.2853 39.0912C40.2021 39.2003 40.1551 39.3331 40.1551 39.4762V41.162C40.1551 41.3051 40.2021 41.4378 40.2853 41.547C40.0972 41.4251 39.9742 41.2227 39.9742 40.9934V39.6448C39.9742 39.4155 40.0972 39.2131 40.2853 39.0912Z" fill="#FEB618"/>
<path d="M39.9742 22.113C39.9742 21.7406 40.2979 21.4387 40.6976 21.4387C41.0972 21.4387 41.4209 21.7406 41.4209 22.113V23.4616C41.4209 23.834 41.0972 24.1359 40.6976 24.1359C40.2979 24.1359 39.9742 23.834 39.9742 23.4616V22.113Z" fill="#FEB618"/>
<path fill-rule="evenodd" clip-rule="evenodd" d="M40.2853 21.5594C40.2021 21.6685 40.1551 21.8013 40.1551 21.9444V23.6302C40.1551 23.7733 40.2021 23.906 40.2853 24.0152C40.0972 23.8933 39.9742 23.6909 39.9742 23.4616V22.113C39.9742 21.8838 40.0972 21.6813 40.2853 21.5594Z" fill="#FEB618"/>
<path d="M30.9324 32.2275C30.5327 32.2275 30.209 31.9256 30.209 31.5532C30.209 31.1808 30.5327 30.8789 30.9324 30.8789H32.3791C32.7788 30.8789 33.1025 31.1808 33.1025 31.5532C33.1025 31.9256 32.7788 32.2275 32.3791 32.2275H30.9324Z" fill="#FEB618"/>
<path fill-rule="evenodd" clip-rule="evenodd" d="M30.6105 32.1575C30.3736 32.0473 30.209 31.818 30.209 31.5532C30.209 31.1808 30.5327 30.8789 30.9324 30.8789H31.2037C30.7534 30.8789 30.3899 31.2186 30.3899 31.6375C30.3899 31.8388 30.4749 32.0218 30.6105 32.1575Z" fill="#13394E"/>
<path d="M50.6437 32.2275C51.0433 32.2275 51.367 31.9256 51.367 31.5532C51.367 31.1808 51.0433 30.8789 50.6437 30.8789H49.197C48.7973 30.8789 48.4736 31.1808 48.4736 31.5532C48.4736 31.9256 48.7973 32.2275 49.197 32.2275H50.6437Z" fill="#FEB618"/>
<path fill-rule="evenodd" clip-rule="evenodd" d="M50.9657 32.1575C51.2025 32.0473 51.3671 31.818 51.3671 31.5532C51.3671 31.1808 51.0434 30.8789 50.6438 30.8789H50.3725C50.8228 30.8789 51.1863 31.2186 51.1863 31.6375C51.1863 31.8388 51.1013 32.0218 50.9657 32.1575Z" fill="#FEB618"/>
<path d="M43.6941 31.5812C43.8569 31.4726 44.0829 31.5072 44.2005 31.6586L44.3072 31.7985C44.4229 31.9485 44.3867 32.1574 44.2276 32.2668L40.9363 34.5179C40.8134 34.6022 40.6398 34.5751 40.553 34.4579L40.3703 34.2125C40.2582 34.0612 40.298 33.8541 40.4571 33.7469L43.6941 31.5812Z" fill="#FEB618"/>
<path fill-rule="evenodd" clip-rule="evenodd" d="M44.2005 31.6586C44.0829 31.5072 43.8569 31.4726 43.6941 31.5812L40.4626 33.7435C40.2998 33.852 40.2636 34.0626 40.3794 34.2138L40.4843 34.3509C40.3685 34.1996 40.4065 33.9889 40.5675 33.8804L43.8008 31.7182C43.9618 31.6097 44.1878 31.6442 44.3054 31.7954L44.2005 31.6586Z" fill="#79570B"/>
<path d="M40.1696 28.6874C40.1696 28.5011 40.3306 28.3503 40.5313 28.3503H40.7121C40.9111 28.3503 41.0738 28.5011 41.0738 28.6874V34.2504C41.0738 34.4367 40.9111 34.5875 40.7121 34.5875H40.5313C40.3306 34.5875 40.1696 34.4367 40.1696 34.2504V28.6874Z" fill="#FEB618"/>
<path fill-rule="evenodd" clip-rule="evenodd" d="M40.5313 28.3503C40.3306 28.3503 40.1696 28.5011 40.1696 28.6874V34.2504C40.1696 34.4367 40.3306 34.5875 40.5313 34.5875H40.7121C40.5114 34.5875 40.3505 34.4367 40.3505 34.2504V28.6874C40.3505 28.5011 40.5114 28.3503 40.7121 28.3503H40.5313Z" fill="#79570B"/>
<path d="M266.947 27.807C266.947 25.3384 264.8 23.3372 262.152 23.3372H212.284C209.636 23.3372 207.489 25.3384 207.489 27.807V37.3426C207.489 39.8111 209.636 41.8124 212.284 41.8124H262.152C264.8 41.8124 266.947 39.8111 266.947 37.3426V27.807Z" fill="white"/>
<path fill-rule="evenodd" clip-rule="evenodd" d="M221.133 41.8124H263.431C265.373 41.8124 266.947 40.3448 266.947 38.5346H214.522H207.489C207.489 40.3448 209.064 41.8124 211.006 41.8124H211.665L208.288 45.6863L221.133 41.8124Z" fill="white"/>
<path d="M251.283 32.2768C251.283 33.2643 252.142 34.0647 253.201 34.0647C254.261 34.0647 255.119 33.2643 255.119 32.2768C255.119 31.2893 254.261 30.4889 253.201 30.4889C252.142 30.4889 251.283 31.2893 251.283 32.2768Z" fill="#FF4B1E"/>
<path d="M253.201 34.0647C252.142 34.0647 251.283 33.2643 251.283 32.2768C251.283 31.2893 252.142 30.4889 253.201 30.4889C252.722 31.0351 252.051 32.5152 253.201 34.0647Z" fill="#FDC9C9"/>
<path d="M240.415 32.2768C240.415 33.2643 241.273 34.0647 242.333 34.0647C243.392 34.0647 244.251 33.2643 244.251 32.2768C244.251 31.2893 243.392 30.4889 242.333 30.4889C241.273 30.4889 240.415 31.2893 240.415 32.2768Z" fill="#FF4B1E"/>
<path d="M242.333 34.0647C241.273 34.0647 240.415 33.2643 240.415 32.2768C240.415 31.2893 241.273 30.4889 242.333 30.4889C241.853 31.0351 241.182 32.5152 242.333 34.0647Z" fill="#FDC9C9"/>
<path d="M229.866 32.2768C229.866 33.2643 230.724 34.0647 231.784 34.0647C232.843 34.0647 233.702 33.2643 233.702 32.2768C233.702 31.2893 232.843 30.4889 231.784 30.4889C230.724 30.4889 229.866 31.2893 229.866 32.2768Z" fill="#FF4B1E"/>
<path d="M231.784 34.0647C230.724 34.0647 229.866 33.2643 229.866 32.2768C229.866 31.2893 230.724 30.4889 231.784 30.4889C231.304 31.0351 230.633 32.5152 231.784 34.0647Z" fill="#FDC9C9"/>
<path d="M219.317 32.2768C219.317 33.2643 220.175 34.0647 221.235 34.0647C222.294 34.0647 223.153 33.2643 223.153 32.2768C223.153 31.2893 222.294 30.4889 221.235 30.4889C220.175 30.4889 219.317 31.2893 219.317 32.2768Z" fill="#FF4B1E"/>
<path d="M221.235 34.0647C220.176 34.0647 219.317 33.2643 219.317 32.2768C219.317 31.2893 220.176 30.4889 221.235 30.4889C220.755 31.0351 220.084 32.5152 221.235 34.0647Z" fill="#FDC9C9"/>
<defs>
<linearGradient id="paint0_linear" x1="141.144" y1="225.242" x2="146.384" y2="228.423" gradientUnits="userSpaceOnUse">
<stop stop-color="#FFA261"/>
<stop offset="1" stop-color="#F4B88E"/>
</linearGradient>
<linearGradient id="paint1_linear" x1="126.454" y1="208.574" x2="172.485" y2="180.654" gradientUnits="userSpaceOnUse">
<stop/>
<stop offset="1" stop-color="#152B43" stop-opacity="0"/>
</linearGradient>
<linearGradient id="paint2_linear" x1="147.239" y1="132.915" x2="129.003" y2="138.679" gradientUnits="userSpaceOnUse">
<stop stop-color="#161616"/>
<stop offset="1" stop-color="#282828" stop-opacity="0"/>
</linearGradient>
<linearGradient id="paint3_linear" x1="285.033" y1="199.067" x2="200.286" y2="233.746" gradientUnits="userSpaceOnUse">
<stop stop-color="#020202"/>
<stop offset="1" stop-color="#0A0A0A"/>
</linearGradient>
<linearGradient id="paint4_linear" x1="123.409" y1="198.712" x2="38.6629" y2="233.391" gradientUnits="userSpaceOnUse">
<stop stop-color="#0D0D0D"/>
<stop offset="1" stop-color="#242424"/>
</linearGradient>
<linearGradient id="paint5_linear" x1="173.743" y1="192.095" x2="178.559" y2="195.816" gradientUnits="userSpaceOnUse">
<stop stop-color="#FFA261"/>
<stop offset="1" stop-color="#F4B88E"/>
</linearGradient>
<linearGradient id="paint6_linear" x1="110.731" y1="154.64" x2="142.426" y2="144.617" gradientUnits="userSpaceOnUse">
<stop/>
<stop offset="0.964205" stop-color="#152B43" stop-opacity="0"/>
</linearGradient>
<linearGradient id="paint7_linear" x1="185.458" y1="145.574" x2="151.167" y2="140.235" gradientUnits="userSpaceOnUse">
<stop stop-color="#151515"/>
<stop offset="1" stop-color="#3F3F3F" stop-opacity="0"/>
</linearGradient>
<linearGradient id="paint8_linear" x1="234.547" y1="134.455" x2="224.471" y2="140.57" gradientUnits="userSpaceOnUse">
<stop stop-color="#FFC69E"/>
<stop offset="1" stop-color="#FF9C58"/>
</linearGradient>
<linearGradient id="paint9_linear" x1="193.906" y1="120.498" x2="219.192" y2="108" gradientUnits="userSpaceOnUse">
<stop stop-color="#FF9330"/>
<stop offset="1" stop-color="#FFBF30" stop-opacity="0"/>
</linearGradient>
<linearGradient id="paint10_linear" x1="229.467" y1="97.3051" x2="221.405" y2="112.039" gradientUnits="userSpaceOnUse">
<stop stop-color="#12C65A"/>
<stop offset="1" stop-color="#2ECF6E"/>
</linearGradient>
<linearGradient id="paint11_linear" x1="189.23" y1="64.9482" x2="181.128" y2="67.227" gradientUnits="userSpaceOnUse">
<stop stop-color="#F4B88E"/>
<stop offset="0.978667" stop-color="#FFA261"/>
</linearGradient>
<linearGradient id="paint12_linear" x1="192.144" y1="65.0687" x2="189.882" y2="66.601" gradientUnits="userSpaceOnUse">
<stop stop-color="#FF8A37"/>
<stop offset="1" stop-color="#FAAD78" stop-opacity="0"/>
</linearGradient>
<linearGradient id="paint13_linear" x1="129.73" y1="112.382" x2="132.739" y2="101.246" gradientUnits="userSpaceOnUse">
<stop stop-color="#FFB40B"/>
<stop offset="1" stop-color="#FFC542" stop-opacity="0"/>
</linearGradient>
<linearGradient id="paint14_linear" x1="141.608" y1="89.149" x2="127.457" y2="70.3709" gradientUnits="userSpaceOnUse">
<stop stop-color="#FF491B"/>
<stop offset="1" stop-color="#FF633B" stop-opacity="0.38"/>
</linearGradient>
<linearGradient id="paint15_linear" x1="127.942" y1="66.1624" x2="138.26" y2="79.5636" gradientUnits="userSpaceOnUse">
<stop stop-color="#FFC700"/>
<stop offset="1" stop-color="white" stop-opacity="0"/>
</linearGradient>
<linearGradient id="paint16_linear" x1="127.942" y1="66.1625" x2="138.26" y2="79.5636" gradientUnits="userSpaceOnUse">
<stop stop-color="#FFC700"/>
<stop offset="1" stop-color="white" stop-opacity="0"/>
</linearGradient>
<linearGradient id="paint17_linear" x1="127.942" y1="66.1624" x2="138.26" y2="79.5636" gradientUnits="userSpaceOnUse">
<stop stop-color="#FFC700"/>
<stop offset="1" stop-color="white" stop-opacity="0"/>
</linearGradient>
<linearGradient id="paint18_linear" x1="127.942" y1="66.1624" x2="138.26" y2="79.5636" gradientUnits="userSpaceOnUse">
<stop stop-color="#FFC700"/>
<stop offset="1" stop-color="white" stop-opacity="0"/>
</linearGradient>
<linearGradient id="paint19_linear" x1="127.942" y1="66.1624" x2="138.26" y2="79.5636" gradientUnits="userSpaceOnUse">
<stop stop-color="#FFC700"/>
<stop offset="1" stop-color="white" stop-opacity="0"/>
</linearGradient>
<linearGradient id="paint20_linear" x1="176.528" y1="90.3866" x2="99.1023" y2="110.642" gradientUnits="userSpaceOnUse">
<stop stop-color="#FF4717"/>
<stop offset="1" stop-color="#FF491B"/>
</linearGradient>
<linearGradient id="paint21_linear" x1="181.448" y1="56.0878" x2="190.22" y2="56.595" gradientUnits="userSpaceOnUse">
<stop stop-color="#FEA568"/>
<stop offset="1" stop-color="#F4B88E"/>
</linearGradient>
<linearGradient id="paint22_linear" x1="184.765" y1="61.4296" x2="187.253" y2="59.8985" gradientUnits="userSpaceOnUse">
<stop stop-color="#FF9F5B"/>
<stop offset="0.961909" stop-color="#F4B88E" stop-opacity="0"/>
</linearGradient>
<linearGradient id="paint23_linear" x1="197.52" y1="55.2724" x2="196.82" y2="55.1727" gradientUnits="userSpaceOnUse">
<stop stop-color="#FFCAA6"/>
<stop offset="1" stop-color="#FFCAA6" stop-opacity="0"/>
</linearGradient>
<linearGradient id="paint24_linear" x1="181.473" y1="57.2854" x2="189.678" y2="46.285" gradientUnits="userSpaceOnUse">
<stop offset="0.0300609" stop-color="#872E1E"/>
<stop offset="1" stop-color="#B6250C"/>
</linearGradient>
<linearGradient id="paint25_linear" x1="199.281" y1="51.5985" x2="179.917" y2="54.2672" gradientUnits="userSpaceOnUse">
<stop stop-color="#FFCB7C" stop-opacity="0.89"/>
<stop offset="1" stop-color="#FC340E"/>
</linearGradient>
<linearGradient id="paint26_linear" x1="199.993" y1="50.7748" x2="180.629" y2="53.4437" gradientUnits="userSpaceOnUse">
<stop stop-color="#FFCB7C" stop-opacity="0.89"/>
<stop offset="1" stop-color="#FC340E"/>
</linearGradient>
<linearGradient id="paint27_linear" x1="201.774" y1="45.599" x2="186.767" y2="49.1384" gradientUnits="userSpaceOnUse">
<stop stop-color="#FFC700" stop-opacity="0.58"/>
<stop offset="1" stop-color="#D0A715" stop-opacity="0"/>
</linearGradient>
<linearGradient id="paint28_linear" x1="232.637" y1="146.329" x2="221.849" y2="153.171" gradientUnits="userSpaceOnUse">
<stop stop-color="#FFD6B9"/>
<stop offset="1" stop-color="#FFA769"/>
</linearGradient>
<linearGradient id="paint29_linear" x1="165.062" y1="111.04" x2="182.832" y2="108.908" gradientUnits="userSpaceOnUse">
<stop offset="0.0344023" stop-color="#FFA030"/>
<stop offset="1" stop-color="#FFBF30" stop-opacity="0"/>
</linearGradient>
<linearGradient id="paint30_linear" x1="187.437" y1="96.3897" x2="170.914" y2="107.719" gradientUnits="userSpaceOnUse">
<stop stop-color="#FFF270"/>
<stop offset="1" stop-color="#FFBF30" stop-opacity="0"/>
</linearGradient>
<linearGradient id="paint31_linear" x1="211.197" y1="151.264" x2="205.777" y2="132.892" gradientUnits="userSpaceOnUse">
<stop stop-color="#12C65A"/>
<stop offset="1" stop-color="#4FD283"/>
</linearGradient>
</defs>
</svg>
